/* XPM */
static char *fba94d9eea3541dda52abe2b35902bae3mLtjLHcPpppBqyR[] = {
/* columns rows colors chars-per-pixel */
"64 64 16 1 ",
"  c #0E0E0E",
". c gray7",
"X c gray9",
"o c gray10",
"O c #1D1D1D",
"+ c #232323",
"@ c #272727",
"# c gray17",
"$ c #2F2F2F",
"% c #313131",
"& c #343434",
"* c #393939",
"= c #3C3C3C",
"- c gray25",
"; c gray27",
": c #484848",
/* pixels */
"%%%#$%%%%%%%%%%%%%%%%%%%%%%%%%%#$$%%%%%%%%%%%%%%%%%%%%%%%%%$#$$%",
"%%##@$%&&%%&&&&%&&&&%&&&%&%&%%$#@#&&%&%&&&&&&%%&&&&%&&&%&&$##@&%",
"%@#@#O&&&&&&&&&&&&&&&&&&&&&&%$@@#+@&&&&&&&&&&&&&&&&&&&&&&%#@#@+%",
"##@##@O&********&***********$###@#O#*******&************&###@#@O",
"#@#@#@@o%**&******&**&****&$#@#@@#@O#*&**&****&***&***&&#@#@#@#+",
"@#@#@##+o&***&&********&&*$#@#@##@##o@******&****&**&*&###@#@#@#",
"#@#@#@#@+o&*&****&*******$#@#@#@@#@#@X#&&*&**********&#@@##@#@#@",
"@#@#@#@#@+O&**&**&*&*&**%$@#@#@##@#@#@o$****&*&**&&**####@@#@#@#",
"@#@#@#@##@oO&*&*&*&&*&&&##@#@#@#@#@#@#+X#&**&*&&*&*&##@#@#@#@#@#",
"#@#@#@#@@##oO&&******=%#@@#@#@#@#@#@#@#+o#=&*******$#@#@#@#@#@#@",
"@#@#@#@##@#@o+***&*&-%###@@#@#@#@#@#@#@#+O$**&***=##@#@#@#@#@#@#",
"#@#@#@#@@#@#@OO=*&&;&$##@##@#@#@#@#@#@#@#Oo#-&&==$$@#@#@#@#@#@#@",
"@#@#@#@#@#@#@+OO=*;&$##@#@#@@#@#@#@#@#@#@@OO#-=-%$#@@#@#@#@#@#@#",
"#@#@#@#@#@#@#@@OO:&%##@#@#@##@#@#@#@#@#@@#@OO$;$$#@##@#@#@#@#@#@",
"@#@#@#@#@#@#@##+++$$@##@#@#@@#@#@#@#@#@##@#@++$$#@#@@#@#@#@#@#@#",
"#@#@#@#@#@#@#@#@O+$##@@#@#@##@#@#@#@#@#@@#@#+O####@##@#@#@#@#@#@",
"@#@#@#@##@#@#@@#@@##@#@#@#@#@#@##@#@#@#@@#@#@@#@@#@##@#@#@#@#@#@",
"#@#@#@#@@#@#@##@#O@@#@#@#@#@#@#@@#@#@#@##@#@#@O##@#@@#@#@#@#@#@#",
"@###@#@##@####@#o .###@####@@####@#@#@#@@#@#+  +##@##@@###@##@#@",
"@@@@@@@@@@@@@@#o   .@@@@@@@#@@@@#@@@#@@@@@#@.   O@@@@#@@@@@@@#@@",
"@@@@#@@@@#@@@#o     .@#@@@@@@@#@@@@#@@@@@@@.     +#@@@@@@@@@@@#@",
"###@@###@##@#O   .   X@##@#@##@@#@#@#@###@.       O####@#@###@@#",
"@#@#@#@##@#@O  .XXX.. X@##@#@#@#@#@#@#@#@.  XXXX. .+@#@##@#@#@#@",
"#@#@#@#@@#@+  XooXooX  X@@#@#@#@#@#@#@#@. .ooXooo. .@@#@@#@#@#@#",
"@#@##@#@#@+  oOOoOOOOOX o#@#@#@#@#@#@@@X XOoOOOOOOX  @#@#@#@#@#@",
"#@#@@#@#@+ .OO+OO+OOOOOX o#@#@#@#@#@#@. oOO++OOOO+Oo..+#@#@#@#@#",
"@#@##@##+ o+++++++++++O+O.o@@#@#@#@#@X.+++O++++++++++X.@#@#@#@#@",
"#@#@@#@+.O@@@++@++@@+@@@@+Xo#@#@#@#@.X+@+@@@+@+++@@+@+o @@@#@##@",
"+##@#@@.@@@@@#@@@@@@@@@@@@@oo#@#@##XO@@#@@@@@@@@@@@@@@@+.@@##@#+",
"X@@#@@o###################@#+O#@#@o+####################@o@@@#+o",
"$+@@@+$###$###$#$#$#$#$##$#$$@+#@+#$#$##$##$$#$##$$#$##$$#+@#++$",
"$$@##$$$$$$$$$$$$$$$$$$$$$$$$$#@#$$$$$$$$$$$$$$$$$$$$$$$$$$@##$$",
"%%$@$%&%%&%%%&%%&%%%&%%%&%%&%%$#@%%%%&%%&%%&%%%&%%&%%%&%%&%#@$%%",
"&$##@%&&&&&&&&&&&&&&&&&&&&&&&%##@@&&&&&&&&&&&&&&&&&&&&&&&&$##+%%",
"%##@@+$&&*&*&*&*&*&*&*&*&*&&&$#@#+@&&&*&&&&***&&&*&*&**&&%@@#@+$",
"@#@#@#o%***&***&&***&***&**&##@#@#++*******&*&***&***&**%###@##o",
"#@#@@#@o%&***&****&*&**&*&*$#@#@@#@++&***&*********&**&%@#@##@#@",
"@#@##@#@X%****************#@@#@##@#@O@&*******&**&****%##@#@@##@",
"#@#@@#@#@X$*&*&****&**&*&####@#@@#@##o@*&***&*&*****&%#@@#@#@#@#",
"@#@##@#@#+X$****&&**&***$##@@#@##@#@#@o+**&*&****&&*&$###@#@#@#@",
"#@#@#@#@#@+o$**&**&*&*=$#@#@#@#@@#@#@#@X+&**&**&&**&##@#@#@#@#@#",
"@#@#@#@#@#@Oo%***&***=%##@@#@#@##@#@#@@@o+*&*&&****##@#@#@#@#@#@",
"#@#@#@#@#@#@Oo%=&**&=%$#@#@##@#@@#@#@#@#+o@=****=*$#@#@#@#@#@#@#",
"@#@#@#@#@#@@@OO&=&&;%$#@#@#@@#@##@#@#@#@#+o@-&&=*$#@#@#@#@#@#@#@",
"#@#@#@#@@#@#@@OO*-;$$#@#@#@#@#@#@#@#@#@#@#OO@;-*$##@@#@#@#@#@#@#",
"@#@#@#@##@#@##@oO-%$$##@#@#@#@#@#@#@#@#@#@#OO#-$$#@##@#@#@#@#@#@",
"#@#@#@#@@#@#@##+++$$##@#@#@#@#@#@#@#@#@#@#@@++#$#@#@@#@#@#@#@#@#",
"@#@#@#@##@#@#@@#+@$#@@#@#@#@#@#@#@#@#@#@#@#@@O$###@##@#@#@#@#@#@",
"#@#@#@#@#@#@#@#@#@##@##@#@#@@#@##@#@#@#@#@#@#+##@#@##@#@#@#@#@#@",
"@#@#@#@#@#@#@#@#@X+@#@@#@#@##@#@@#@#@#@#@#@#@+o##@#@@#@#@#@#@#@#",
"#@#@#@#@#@#@#@#@X .@@@#@#@#@@#@##@#@#@#@#@#@+  o@#@##@#@#@#@#@#@",
"@#@#@#@#@#@#@#@o    @#@#@#@##@#@@#@#@#@#@#@@    o@#@@#@#@#@#@#@#",
"#@#@#@#@#@#@##o      @#@#@@#@#@##@#@#@#@#@@      O#@#@#@#@#@#@#@",
"@#@#@#@#@#@#@o   ..  .@#@##@#@#@@#@#@#@#@@   ..   O#@#@#@#@#@#@#",
"#@#@#@#@#@#@o  .XX.X  .@##@#@#@##@#@#@#@+  .X.XX.  O#@#@#@#@#@#@",
"@#@#@#@#@##o  oooooooX .@@#@#@#@@#@#@#@@. XoooooOX  O#@#@#@#@#@#",
"#@#@#@#@#@o .oOOoOOOOOo .#@##@#@#@@#@#+. oOOOOOOOOo. O@##@@#@#@#",
"@#@#@#@##o XO+O++O+OO+Oo .@#@#@#@##@#+..OO+OO+OO+O+OX +#@##@#@#@",
"#@#@#@#@o O++++++++++++++..@#@#@#@##@.XO+++++++++++++o +##@##@@#",
"@#@#@##OX+@@@@@@@+@@@@@@@@XX@#@#@#@@.o@@@@@@@@@@@@+@@@O.+@#@@#@#",
"+#@##@OX@@#@@#@#@#@##@#@@#@Oo@#@@#@X+#@##@#@@#@#@@#@@#@@X+@##@#o",
"O+#@#OO$###################$@O@##@X@#####################O+@@#O+",
"#@@@+@#$$##$$##$#$$##$#$$##$##+@@+$#$##$$##$$#$##$$##$$#$$+@@+##",
"$$##$$$$$$$$$$$$$$$$$$$$$$$$$$$##$$$$$$$$$$$$$$$$$$$$$$$$$$$#$$$"
};
