/* XPM */
static char *d0166984fe5e458be7a08afb8b6fb91fce1WHnh40uTGQO1Q[] = {
/* columns rows colors chars-per-pixel */
"64 64 160 2 ",
"   c gray6",
".  c #110F0F",
"X  c #0C110F",
"o  c #11100F",
"O  c #120F11",
"+  c #1B0E12",
"@  c #0E1010",
"#  c #151515",
"$  c #191516",
"%  c #161917",
"&  c #1A1A16",
"*  c #151519",
"=  c #19161A",
"-  c #151A1B",
";  c #1C1C1C",
":  c #211E1E",
">  c #1E211E",
",  c #21201F",
"<  c #26281F",
"1  c #332E1E",
"2  c #151D21",
"3  c #1C1E21",
"4  c #221F22",
"5  c #1C2223",
"6  c #162729",
"7  c #1C2529",
"8  c #1B2A2B",
"9  c #232323",
"0  c #292626",
"q  c #262827",
"w  c #292826",
"e  c #252729",
"r  c #2A2628",
"t  c #242A2B",
"y  c #2B2B2B",
"u  c #312E2E",
"i  c #2D312E",
"p  c #31322E",
"a  c #3E3B2A",
"s  c #202731",
"d  c #232D33",
"f  c #2E2E31",
"g  c #322E31",
"h  c #2E3232",
"j  c #273739",
"k  c #2B3639",
"l  c #243B39",
"z  c #2C3A3B",
"x  c #343434",
"c  c #383636",
"v  c #353935",
"b  c #383837",
"n  c #363539",
"m  c #393639",
"M  c #353C3D",
"N  c #3B3B3B",
"B  c #403E36",
"V  c #40373B",
"C  c #413E3E",
"Z  c #31423F",
"A  c #3D413E",
"S  c #3E483F",
"D  c #434234",
"F  c #2C3F41",
"G  c #353B42",
"H  c #3E3E42",
"J  c #433E41",
"K  c #274445",
"L  c #2E4140",
"P  c #2E464A",
"I  c #2D4B4B",
"U  c #344444",
"Y  c #3B4344",
"T  c #344947",
"R  c #394844",
"E  c #364749",
"W  c #36494C",
"Q  c #3A4C4C",
"!  c #3A524D",
"~  c #344E54",
"^  c #2B5358",
"/  c #355355",
"(  c #385557",
")  c #3A5856",
"_  c #37545B",
"`  c #355B5D",
"'  c #395B5C",
"]  c #326364",
"[  c #3E6465",
"{  c #346369",
"}  c #376968",
"|  c #3C6D6B",
" . c #3E6F73",
".. c #3E7577",
"X. c #3E7A74",
"o. c #3E757A",
"O. c #424242",
"+. c #454545",
"@. c #494345",
"#. c #494647",
"$. c #414649",
"%. c #484749",
"&. c #474948",
"*. c #45494A",
"=. c #4A4849",
"-. c #4A4A4A",
";. c #4D4A4B",
":. c #4A4C4B",
">. c #484C4D",
",. c #4A504F",
"<. c #505050",
"1. c #425E61",
"2. c #406766",
"3. c #426569",
"4. c #416E6C",
"5. c #42716E",
"6. c #436E72",
"7. c #427171",
"8. c #417578",
"9. c #427A7C",
"0. c #43847F",
"q. c #438584",
"w. c #448584",
"e. c #4C8587",
"r. c #468B86",
"t. c #458789",
"y. c #4E8A8A",
"u. c #488B8D",
"i. c #4E8B8D",
"p. c #498D8E",
"a. c #4D8D8E",
"s. c #458D91",
"d. c #4D8A92",
"f. c #498D92",
"g. c #4A9293",
"h. c #4D979A",
"j. c #4D999B",
"k. c #4E9B9C",
"l. c #4D989E",
"z. c #509192",
"x. c #519697",
"c. c #519699",
"v. c #519799",
"b. c #509C9A",
"n. c #4D99A0",
"m. c #4E9DA1",
"M. c #52A4A4",
"N. c #54A8A6",
"B. c #52A6A9",
"V. c #55ABAC",
"C. c #52A7B0",
"Z. c #57AEB2",
"A. c #58AEB4",
"S. c #59B3B4",
"D. c #5AB6B7",
"F. c #57B2B8",
"G. c #5AB5BA",
"H. c #59B6BA",
"J. c #5CBBBF",
"K. c #5DBDC1",
/* pixels */
"+.+.O.O.O.N N C N N N N N N c c c c n c x x x x f x u i y x c c x i y y w 9 9 9 9 3 9 9 9 9 9 ; 4 ; ; 9 4 ; 4 ; : ; ; ; ; 9 y 9 ",
"; 9 9 ; : ; ; 5 ; ; ; ; ; ; ; ; ; ; ; # ; % % ; ; % = ; ; % g c x t y 9 ; ; ; ; ; ; % % % % % ; % ; % % % % % % % ; % ; ; : N y ",
"; O.N O.+.+.O.O.O.O.H O.C Y N N N N N N b N b N c x c N y ; y c y 9 c y u u y g y y y y r y y y t y 0 9 9 y 0 y 0 9 9 9 y y c q ",
"% O.y n @.O.O.O.O.D H H N N N N N N N N C N N N N N N b 9 , x c u 9 y ; y y y y y y w y r 0 9 9 9 r 9 9 q q 0 q 9 9 9 t 0 9 x 9 ",
"% N h R -.%.&.+.+.+.+.+.O.O.O.A N C N H J J N N N m b c 9 ; x x y 3 y 7 U f u y y y y y y y y y y 0 r t r r 9 9 q 9 t 9 5 0 c 9 ",
"= O.x Q ,.;.:.-.-.-.+.O.+.+.O.O.O.N O.N m N m N m c b c 9 ; y v u 9 y e U h u u y y x y y y y y w y t r t t y t t t q 9 : 9 N 9 ",
"% C g U %.@.+.O.O.O.$.J N O.N N N N N 1.f.d.i.y.y.y.e.W ; > x x p 9 y ; y y y y y y r w 9 9 y 9 9 9 9 e 8.l.l.j.l.l.l.w.t 0 N 9 ",
"; N y x J J O.O.H H D N N N N N N N x 8.J.K.J.K.J.J.D.' : , u n f w y ; t y q y 9 y w t 9 q 9 9 9 9 9 t u.G.G.G.G.F.G.j.d 0 C t ",
"; C h v +.+.O.O.O.Y H H C N A N N N N 3.c.c.c.c.c.x.z.~ 5 9 x x y w y 5 k y y y y y y 0 9 y 9 0 9 0 9 q ` o.8.........{ s t +.9 ",
"% N h Q >.-.&.-.#.O.+.+.O.O.O.O.C Y N N H N b n b m n x , 9 y x x y w 5 R y u y y y y y y y y 9 q q q 0 9 9 9 9 4 9 4 ; , y -.y ",
"; N h R :.%.&.+.O.$.+.O.O.D N O.N N N N m N m N m m c x , 9 x x y y y 5 k y y y y y y y y 9 9 0 q e q 9 9 9 9 9 9 , 9 0 4 y -.9 ",
"; N y n +.+.O.O.O.D J N H N N N N N N N N N N N c c c x 5 9 y x p y 0 ; y y y y y w y 9 9 y 9 9 0 9 9 9 9 9 0 9 9 4 , , 9 y >.9 ",
"% u x N #.&.+.+.#.+.O.O.Y H J N N A N N N N N N b N c x 9 9 x x f y y 9 y y y p y y y y y y w y 9 q r q 0 9 t 9 9 9 9 9 3 y -.0 ",
"% 9 y y y x c y y y y t r y y y y y y y 0 y 9 y t y 9 9 ; 9 y x p y y 9 9 9 9 9 5 ; ; ; 9 9 5 9 3 : : 3 : ; : ; 9 9 ; ; % 0 +.9 ",
"; m m N N C N N N N b b c c c n n h x n x h x y p x y c y ; y u g y c q y y y y 0 0 9 9 9 9 9 9 9 9 0 9 , 9 9 , , 9 , 4 9 y +.9 ",
"; A u c O.+.O.O.A N A N N N b N b b b N m m m c c c p n 9 9 y x y y y ; 9 y w 9 9 w y 9 9 9 9 9 9 5 9 ; 9 5 4 4 9 ; : > 3 r O.9 ",
"; N y G +.+.O.O.O.O.N N N Y N N N N b N m m c c c c n h ; 9 y x y y 9 5 k y y y y 9 0 9 9 9 9 9 9 : 9 9 4 9 , 9 4 4 3 3 ; r #.9 ",
"; N h Q >.%.+.O.O.+.O.O.O.C C N N N N b N c c x x x h g 4 9 y x y y y 5 L y r y r y q y t 9 9 9 9 9 , 5 9 5 : ; > ; ; : ; y ;.9 ",
"; N y R &.@.+.O.O.O.O.N N N N N N b b Q | 3.2.2.[ [ [ G : 9 p p y y q 3 h y y 9 9 t 0 9 9 9 9 9 9 9 9 9 ` o...........] 5 y ;.9 ",
"% N y n J D Y H A N N N N N N b c c n  .G.G.D.D.D.D.V./ & 9 y x y y 0 = 0 0 y 9 0 9 9 9 9 9 9 9 3 : : 7 t.G.G.G.S.S.F.l.8 0 -.9 ",
"; N i h O.J J N N N N N N N N b c c x ..V.V.V.V.V.V.M.~ 4 9 y y y y y ; t y 9 0 9 9 9 9 9 9 9 ; 9 : 5 9  .g.s.s.s.s.u.X.7 r -.9 ",
"; N i E &.Q +.J O.O.O.O.A N N N N N c N U H U U G U Z x ; 9 y x y y t 5 F y y w y 9 y 9 9 9 9 9 9 9 : 4 7 5 > 5 5 5 5 3 ; q -.3 ",
"; N y E +.+.+.O.O.O.O.N N O.N N N c m m m c x x x g x g 4 9 x y y y 9 5 z y y w 9 y 9 9 9 9 9 9 , 9 ; 9 4 3 3 : ; 5 ; ; ; r -.4 ",
"% N y n +.O.O.N O.N N N N N N b b c x m m c x x x x g i ; 9 y y y y 9 ; 9 0 9 9 y 9 9 9 9 9 ; 9 4 > ; 9 : > : : : ; ; ; ; r -.> ",
"% x y N O.O.O.O.A A N D N N N N b b b b c c n v x x x x 5 9 y u y y y , w y 0 r 9 9 y 9 9 9 9 9 9 9 ; 9 9 4 : 4 , ; ; ; 4 y -.9 ",
"% r y x n c N x c n x x h x c x h x g h x u y i y x y 0 9 r y y y y y 9 9 t y 9 9 9 9 9 9 9 9 9 9 9 9 9 9 4 4 4 9 9 9 ; ; 9 -.; ",
"; x c c x c N x x x f f y y f i p y y y y y y y y y 9 y 9 ; y y u x x 9 y 9 9 9 9 9 : 5 9 9 3 9 > 4 : , ; ; ; : ; ; ; ; 9 9 +.; ",
"; N i N O.O.H H N H N N N N b b N b c b v c x x x p x c 9 9 y y y y y ; 9 0 q 9 9 9 9 9 9 , , , 9 ; 5 ; : ; 3 ; ; ; ; ; ; y +.> ",
"; N y k O.J D H N N N N b N c c c x x n n x x x x f f f ; 9 y y y y 9 % y q 9 9 9 9 9 9 9 ; ; 9 ; > ; > ; ; 3 ; ; ; ; ; * r -.; ",
"; N y E $.O.O.O.O.O.C N N N N N N n b b n x x p x g g y ; 9 y y y y 9 3 z t 0 r 9 9 9 9 9 9 9 9 9 ; , 3 3 3 = ; = = = % % r >.: ",
"; N y U $.O.O.O.N Y N N N N N b c c n M W E T T U U T h 2 9 r y y y 9 2 k q 9 9 9 9 9 9 9 ; > ; ; : ; 4 z I I I I I I l - y ;.; ",
"; m y x C C N N N N N N b c c c c x h 5.Z.S.V.Z.V.Z.B.~ : 9 y y y y 0 % 9 0 9 9 9 9 : 9 ; 9 9 ; , ; ; 7 w.Z.Z.Z.Z.Z.S.g.7 0 ;.; ",
"; b r x C N H N N N N b b b b n x x x 7.S.A.S.S.A.A.M.~ : 9 y y t y 9 % 9 0 5 9 ; 9 9 : 9 ; ; ; ; ; ; 7 9.B.B.B.B.B.B.r.7 0 -.; ",
"% N y U $.J H H N N N N b b b b c n n Y ( _ ( ( ( ( ~ k ; 9 y y y y 9 5 z e 9 9 9 9 5 : ; 9 9 ; 9 ; ; : e e 8 t 8 t e 7 * 9 -.; ",
"; N t Q $.O.O.O.N Y N N M N b b c n c x x x f y u u u 0 ; 9 y 9 y y 9 - j 0 0 9 9 9 9 9 9 ; 9 9 > ; ; ; = ; = * ; - $ % # e -.; ",
"% N y b O.C D N N N N N N b b x c x x m g x x f f y u y ; 9 y y r y 9 % 9 0 9 9 9 9 ; > ; 9 ; ; ; ; ; ; : ; ; ; ; - = * * 0 -.; ",
"= N y x O.Y C N C N N b b b b c x x x v x x i x p y y x ; 9 y y y y 9 ; 9 9 9 9 9 9 9 : 9 9 9 ; ; ; ; ; ; ; ; * ; ; ; % ; y %.; ",
"% y x n N N N N N N c c x c c n x x x x x x x u x u p y 9 9 y y y f y q y y y q 9 9 9 9 9 9 9 9 q 9 9 9 0 9 9 0 9 9 ; : = y -.; ",
"9 y x h y c N u y y y y y y y y y y y y y y y y h y 9 q ; 9 w y y x x r y 9 q 9 9 ; ; 9 9 9 9 9 9 9 9 : ; ; 5 : ; 9 ; ; ; 9 +.; ",
"; N x N O.O.N N A N N N M b b b b c x n x u h p g f y c 9 9 y y y y y ; 9 9 9 9 9 9 , 3 , ; ; , ; ; ; % ; ; ; % % % * % ; y O.; ",
"; b r h C N N N N b m b b v x c x x x x p p u p u y x y ; 9 y 9 y y 9 % 9 9 9 9 , ; 9 ; : ; ; ; % ; ; ; ; = % ; = # # % # r >.; ",
"; N t U O.C O.N N N N N M b b x v n x x x u u u y y y 0 ; 9 y y 0 y 9 - k 9 9 , 9 : , 3 5 ; ; ; ; ; ; % % = = % $ # $ % @ 9 -.; ",
"% N y E +.C A N N N N m n b b n x x x p x x x h i x h r ; 9 0 9 y y 9 2 j 7 9 9 > 9 : > ; : ; ; ; ; ; ; 7 8 8 8 7 8 8 6 # 9 -.% ",
"% c q n H J N N N b N b c c n x x x i [ l.c.b.j.l.j.i.P & 9 w y 9 y 9 * 9 9 : 9 ; 4 9 ; , ; ; ; ; * - 5 9.m.m.m.l.m.k.w.3 9 -.; ",
"% b w i N N N N N N c b b x x x x p h  .S.A.A.V.A.A.N.~ % 9 y 9 w y 9 % : 9 9 ; 9 ; ; > ; ; ; ; ; ; % 2 0.B.B.B.B.B.V.s.2 9 &.; ",
"; c y M Y V N N N N b b b n c x x x x ! 5.6.5.5.4.4.2.z ; 9 y y 9 y 9 - d 9 9 : 9 9 4 ; : ; ; ; ; ; = ; l P K K K K K l * e -.* ",
"; c t W Y C D H N N b b b c c n x x p u f g y f y y w 0 ; 9 y 9 y y 9 - j 9 4 9 ; ; 9 > ; ; ; ; ; % ; % % $ & . # O O + # 9 -.; ",
"% n y G O.H m H N N M b c v c c x x x x p p g y y y y 0 ; , w 9 9 y 9 * t 9 9 ; 9 ; ; ; 5 ; ; ; ; ; ; * = = % * * * * *   0 #.% ",
"; c 9 x N N N N N N c b c n x x x x u u x y y g y y y y ; 9 9 y y y 9 % ; 9 9 ; , ; 3 : ; ; ; ; ; ; % % % & # % # # O # = q -.= ",
"; x x b H N O.N N N N b n c b x x x x x x x x y x y y h 9 9 y 9 0 y y 9 y y 9 9 9 9 9 9 9 9 9 9 9 : 9 4 5 9 : : 4 ; ; ; ; y -.% ",
"9 y x x c c c y y x y q 9 y x x x x x x y i x x x p 9 t 9 9 t 9 y N c x x y y 9 9 9 ; 9 y y y y r y 9 y y 9 r r 9 0 ; ; % x <.= ",
"; N n N N N N N N N N b b v n c x x x x x x y u y u y x 9 9 0 y y x y ; 9 9 9 > 9 ; > : ; ; ; ; ; % ; ; = % % * % % % # ; y <.% ",
"; N 0 p N N N N M b c c b x x x g i x h u i u y y y y y ; 9 9 9 9 y 9 % 5 9 , 9 ; 9 ; ; ; ; ; ; % ; = % = % % # # # @ # # 0 -.% ",
"; b t Z A C N N N b b v b x x x x x y x u g y y g y y 0 = 9 y 0 9 y 9 - i 9 , , , ; ; ; ; % ; % ; % % = = % * % * # % #   0 %.# ",
"; c t S A N N N N b b c b x x x x p x x y f y y y y q 0 = 0 9 9 w y 4 & p , 4 9 ; ; ; > ; ; ; = = ; % % % % * * * # * @   e -.% ",
"% c 0 a B N N N N b b c v n x x x x y ) 9.9.9.9.8.9...k & 9 y 9 q y > # < , 5 ; 9 9 ; ; ; ; ; ; % = % - } w.q.q.q.q.q.} 2 9 %.# ",
"; c w y N N b N n b b n n n x i x y y | V.V.V.V.C.C.M.P & 9 y 9 q y 5 # : , 9 ; 3 : ; > ; ; ; % = % = - 9.M.m.M.M.m.M.q.2 9 %.% ",
"% c t z N N N N N b b b n x x x x x x [ g.d.u.f.i.u.w.F % 9 9 0 w y > % t > 9 ; ; 9 ; ; ; ; ; = ; % ; = I { ] ] ] ] { ^ * 7 %.# ",
"; c q R A N N N b b m b v v x x x y u i h f y y y y t 0 = 9 9 t q y 9 ; i , : : ; ; ; ; ; ; ; % % % = % % * . # @   @ O   0 -.% ",
"; c w D D N m b N b b b x x x x x x p h g u f y y y y r ; 9 w 9 q y ; & 1 , 5 > > ; ; ; ; ; ; % ; = % % = * # # * # * O   0 %.# ",
"; c 9 i N N N N b b b c c c x x p x y g g i y y y y y q ; 9 9 0 y y 9 % > 5 : ; ; ; ; ; ; ; % ; % = % % & # # $ O # o X @ 9 -.* ",
"% c y c N N N N b b c c x x h x x i x y y h y y y y y i 9 9 9 9 9 y y ; 9 9 , 9 9 ; ; 9 ; 4 ; ; ; ; ; ; ; ; % = = % # # ; y ;.% ",
"q y x n N x y 9 h Y y > ; x c c c n x N N c N c x q ; 9 9 , 9 t y c N O.&.c 9 ; ; % # y c x x p g x x u x u g g y ; #   O i N # ",
"N N N N O.N c x m N c y y x x x x x y u h y y y y y 9 9 9 9 0 9 9 9 q 9 y 9 9 ; ; ; ; ; ; ; ; ; ; % ; ; ; % % % % # #   # # #   "
};
