/* XPM */
static char *_566fd6348df408583f83b5e375862e7dN7m0PZwYmFpfw1A[] = {
/* columns rows colors chars-per-pixel */
"64 64 162 2 ",
"   c #040415",
".  c #05061C",
"X  c #06091E",
"o  c #080C1F",
"O  c #060721",
"+  c #060924",
"@  c #090D24",
"#  c #060B2B",
"$  c #080C2B",
"%  c #0A1126",
"&  c #07102E",
"*  c #0B122C",
"=  c #0E182F",
"-  c #10152E",
";  c #060C32",
":  c #080D33",
">  c #070E3A",
",  c #080E3B",
"<  c #071034",
"1  c #0C1434",
"2  c #0E1934",
"3  c #07113A",
"4  c #0B143B",
"5  c #0E1A3B",
"6  c #101733",
"7  c #101B35",
"8  c #10173C",
"9  c #111D3C",
"0  c #13213D",
"q  c #070F43",
"w  c #080F41",
"e  c #0B0F48",
"r  c #071240",
"t  c #0A1343",
"y  c #0E1B42",
"u  c #0B154B",
"i  c #0D1A4A",
"p  c #111D43",
"a  c #111E4A",
"s  c #0B1652",
"d  c #0E1B53",
"f  c #0D1759",
"g  c #0E1C5E",
"h  c #101F52",
"j  c #101F5D",
"k  c #0F2046",
"l  c #132344",
"z  c #182646",
"x  c #162946",
"c  c #14244B",
"v  c #18254C",
"b  c #16294C",
"n  c #192B4D",
"m  c #1A314E",
"M  c #0F2157",
"N  c #152552",
"B  c #162953",
"V  c #192C54",
"C  c #14255C",
"Z  c #162B5B",
"A  c #192D5B",
"S  c #1C3255",
"D  c #1F3957",
"F  c #1C335C",
"G  c #1E395C",
"H  c #203555",
"J  c #213C5B",
"K  c #142664",
"L  c #172A61",
"P  c #152863",
"I  c #182E63",
"U  c #1A2F63",
"Y  c #13266F",
"T  c #162A69",
"R  c #192E6A",
"E  c #1D3463",
"W  c #1E3462",
"Q  c #1E3662",
"!  c #1E3364",
"~  c #1F3564",
"^  c #1E3963",
"/  c #1A3168",
"(  c #1E3669",
")  c #1E3A6B",
"_  c #1E3770",
"`  c #1E3874",
"'  c #1B337B",
"]  c #1C3779",
"[  c #213763",
"{  c #203A60",
"}  c #223F60",
"|  c #213D64",
" . c #223C65",
".. c #223968",
"X. c #233B6B",
"o. c #223C6B",
"O. c #223D6D",
"+. c #223C72",
"@. c #243F72",
"#. c #213D76",
"$. c #24415C",
"%. c #25435E",
"&. c #244265",
"*. c #264267",
"=. c #274861",
"-. c #274964",
";. c #294B64",
":. c #22406C",
">. c #25416E",
",. c #25446C",
"<. c #294768",
"1. c #274A6D",
"2. c #294B6B",
"3. c #2B4B6E",
"4. c #2D5269",
"5. c #2D526B",
"6. c #2C506C",
"7. c #2C526D",
"8. c #2E526C",
"9. c #30576E",
"0. c #31586C",
"q. c #234373",
"w. c #254472",
"e. c #274873",
"r. c #294C73",
"t. c #2B4E72",
"y. c #24447B",
"u. c #274B7A",
"i. c #2A4D7B",
"p. c #2A4F7A",
"a. c #2E5573",
"s. c #2E5175",
"d. c #2F5871",
"f. c #2C517A",
"g. c #2D547A",
"h. c #2F5879",
"j. c #305673",
"k. c #345C72",
"l. c #315874",
"z. c #325B74",
"x. c #345F74",
"c. c #315A7B",
"v. c #345E78",
"b. c #345C7B",
"n. c #376075",
"m. c #386077",
"M. c #35627D",
"N. c #39657C",
"B. c #3A697D",
"V. c #274D85",
"C. c #2A4F80",
"Z. c #2B5282",
"A. c #2E5584",
"S. c #2F5A83",
"D. c #315B84",
"F. c #366483",
"G. c #386682",
"H. c #386985",
"J. c #3A6B88",
"K. c #3F788A",
"L. c #417786",
"P. c #447D8F",
/* pixels */
"  2 b       D % & % o o % 0.X   X 5 O @ 5 @ . S 5 A V b b 2 l 1 ; ; $ O + + + + + a &.j.#.f s ; $ $ $ # # # p 8 O.U p y y , A N ",
"  @ 2       =.@ & @ . o % z.O O 1 H < 2 9 * . | 5 v v x c v 5 b F l O O + + + $ p B a i.' Z.b.F a p p p p p p ..U p p t 8 # ..B ",
"  o *       5.% = % o . % x.O + :.k.Q v x 9 O O.5 2 c c l c B b B V b b B b N B B B X.j.! T R 3 ; $ $ + # : B Z p 5 y 8 # # r.U ",
"  o *     . 5.& 5 & o o & d.+ # u C 3 3 : O O O.y O 5 l B b V N V D J &.G &.D V V y i f.L E [ 4 5 4 4 4 4 a B 9 p y 3 $ # $ f.U ",
"  o =       5.1 $.S @ @ & z.+ l v. .Q 5. .A 6 >.y O + 5 c B c V F ^ :.w.q.:.^ S b F 3.x.q.t 4 ; ; ; ; : # B i p p 4 # # # ; f.! ",
"  = %       2.5 =.D $ @ * 8.+ 4 M.B { s.F F 1 O.y O + + 5 c c v x l i i i l c k a 4 t _ h N V B N v N c N 5 p p 5 # ; # ; # s.U ",
"% =       . $.@ 5 $ 1 2 % 8.O O H : c n 4 n # ..5 + O + O p ^ L.a.Z Z B v v c v c v B A p ; # # # # # : ; p 5 4 # ; : # ; # 2.Z ",
"0           V     2 % # % | X . 2 l l 5 B x $ J 5 O + + + $ u N.e.C Z A y 4 9 y a c N B C N N c c i 5 5 a a t # # # # # # # ( B ",
"          . c     X %   * F . . . 1 0 F c x @ H 4 O + + + + : e 3 u c.u.d c c v A A R ! ( ! U A B B N c c 4 ; : ; # $ # : : U A ",
"      .     0       X @ * S O . . X b F c x $ n 8 + + + + + + $ $ t r.C > $ $ $ # # # # : # y i c N V F E ^ F F V B a a a B V U ",
"      .   O l X     5 2 * b .   . O b ;.B x # v 5 + + O + + + $ + : > ; $ $ $ + # $ $ $ $ a B F ( O.w.i.A.A.A.A.i.#.X.! U A A B ",
"            2 . . . @ # * b O . . X n 5.Z b # l 8 + + + + # O $ + + $ $ $ $ $ $ $ $ $ # c N A A Q ( O.f.S.F.J.J.F.D.i.@.( A B B ",
"            .         = 5 2 . . X O n a.A x 1 v N ; + + + $ $ + $ $ # $ $ $ $ $ $ $ $ a B F V B F Q F / ..#.C.A.y.( E [ A A A 4 ",
". o o o % % @ @ $ @ * 0 2 O O O O O B a.Z b c C v.a # # O $ O $ # $ O $ $ O $ $ # # c c A V N V 4 $ ; # : 3 X.f.! c a p a p p p ",
"2 2 2 2 2 0 5 5 5 5 0 2 X $ 4 $ O @ B 8.V n c f r.u # + $ $ O # + # $ $ $ $ $ ; , e X.F B B A 5 : , : ; > r X.f.d t 4 , 4 3 4 , ",
"b V F | 4.d.d.d.n.d.4.^ &.d.G.c 0 z n =.B F A w , ; + # O # $ + # $ $ $ $ $ $ ; g z.x.[ E N a F B A Z v c B F Q A v a c c v v a ",
"X . X O @ @ @ @ % # @ X O 3 F 3 1 k b D B -.x.E : O # # # # $ $ # $ + $ ; $ $ > I M.z.E | B N c t ( C > , 1 ; 3 3 3 3 3 : ; ; 3 ",
"7 9 7 7 5 0 0 l V F l l l b B b m 2 b Z B -.s.C ; # + + + # O $ $ $ $ $ # $ ; q u F ) E r.Z V V d N.J.s.s.M.H.J.H.J.J.F.M.f.w.+.",
"@ % % % % * * 5 &.F & O @ @ @ @ % x l x n D 4 ; + + + # # $ # $ # + # # $ $ t w.R C F ! c.Z , # w j s , p A Z A A A Z A N N N N ",
"$ % % % % % * 5 2.^ # X . . X $ x l l n 9 p # + + + + + + + + $ # $ $ # # ; u M.y.B F ! c.U , $ $ : : p B p : > 1 3 1 : 1 > 1 1 ",
"% 7 7 2 5 0 k B ) ) B c l k l l l x b l p O + + + + + # + # # # # $ $ # $ $ > A Z y V ! c./ 3 # $ $ p v p $ ; # ; # # ; # ; # ; ",
"7 2 0 x V ^ r.d.F.F.M.g.,.Q F n l b 0 0 O + + + + + + # # # + # + # $ $ @ # $ p a ; V E h.Z * # ; # A p 4 4 $ $ # a : $ # # # ; ",
"2 0 0 0 k x Z ^ &.1.r.1.&.^ F V b z y O O + + + + + # + $ : ; # $ # + $ # $ # y N ; V A a.Z < # # # A 4 y a : : : V : : ; # # # ",
"0 9 0 * & = 9 l m S S D S m l a 5 2 + + # % # # $ $ $ : h r.u ; $ # + # # # # y N ; V A *.B < # # $ ..t : 4 $ $ $ v ; # # # # ; ",
"7 x .   .   . . . . $ 6 2 2 5 p c c B B V N N c l a y c ( D.C r e , # + $ $ # 8 F ; V A E k c # $ $ O.4 $ 8 : $ ; B , $ $ # # ; ",
"7 V .       . .   % 6 6 * 1 1 5 k l N b V c c k y 4 4 2 B Z B ..n.C ; # $ # # p Q > V V i F v c ; : r.4 4 p 8 4 $ U > $ $ $ # N ",
"2 &.          . @ * = .   O X X O X O & V z l l l z l l c b B w.P.e.c # + $ # 8 O.3 V 3 ^ c i [ > : j.y y c t C t | 5 : # # c a ",
"1 0.. . .   . o = = * l l z z x z b z < C ; * 5 y p 5 a l k k x V N c v # + # p q.u ) Z G.) E F.U > v.y $ i o.c.T r.i # $ 4 c # ",
"2 x.      . @ = * * 9 X O O O O O & 4 B m.2.A c S G &.,.,.,.,.^ Q V V p a $ # 8 r.u F ) h.#.` g.` w b.i # i E D.C r.i $ : p y # ",
"2 d.X     @ * * @ 9 6 * = 1 1 1 6 n F u f.t 1 n i x F F ^ F A v c x B F l N $ y >., $ t s s Y ' s > N.i $ 3 3 U y r.i # $ 4 y # ",
"2 =.. . @ = * * 9 c $ . . X X . $ n F N r.A x l l y l l k l x B l V z n V l c y O., 8 F B #.c.A.q ; G.i # 5 : c 4 e.i $ $ 5 5 # ",
"2 F   @ * * @ 9 n 9 6 6 1 6 7 9 b z.c.P r.c c 5 O @ + + + + p V V 5 B a v B V 4 [ , $ c 1 t | K > : b.p # 1 : l 4 -.t : # y y # ",
"6 z @ % * O 7 H y 2 . . . . X X + > u Z z.^ 5 + + + + @ + $ ; 3 # x 1 V x F F 5 A ; # c $ 1 a 1 # # c.y # 5 : l 3 | 3 $ , Z ! , ",
"@ 0 % * @ 9 x 9 1 .   .   . X X O + + ; r ; + O + + + + + ; Z :.t N + 1 Z ^ | y C # : l # 1 5 : $ : j.3 # 4 # l 1 F > ; 4 u.A.f ",
"* % % @ 7 6 $ - @ 2 * * 5 5 9 l x x n b b z l 5 5 4 1 < + # ) M.u b + 1 F o.>.i c # # x : $ 9 # # # ,.4 # 1 $ a 3 N $ # q ] V.s ",
"% . * @ 7 $ 6 . @ 6 * c l c B S D $.J J J D S n b l p l p # y ,.; c # 1 ^ :.z.i i # ; l : 1 9 : + # ..9 # 1 * x 2 a 5 $ : e u i ",
"  . * o 2 @ 1     . V : O O O O O O O @ . O # + O O $ 2 5 0 2 F # l + 1 &.g.M.i p # # l $ $ 5 : $ + ..y # 4 $ p 9 5 y c c c N p ",
"  X = % 2 @ 2 . X H 4 @ % % % % % & * & 1 9 n @ < 5 b @ 1 5 b $.# c $ 5 2.A.F.i 9 8 # n : 1 5 $ # # V h a $ 1 # p l 1 1 1 1 1 1 ",
"  . 1 o 7 @ - . v 8 O @ X   X X   X X # 5 > $ 1 @ $ $ + @ 3 G =.# B a d g.D.F.r : 8 8 1 b a y p # + B : Q p , 1 # 9 l l l i i 9 ",
"  . 9 O 9 O = 6 $ @ @ . 2 l 9 9 l 0 b &.N.| 5 + + + + + O 2 G 1.; _ m.i.D.D.M.> # * 5 9 , v V a p $ v 1 # [ a $ 5 1 2 5 i N y 1 ",
"  O y @ l @ & % o o . 6 = O O @ @ @ @ < A Z * O O @ @ @ + < G 3.# I 1.L g.S.h.; # + < 9 2 3 c { c 5 # # # $ N y : 1 1 y >.w.t # ",
"  O l % N @ * @ @ . - 1 * * 1 4 5 5 k c b k < < % & 5 + O 1 D 1.+ c c 5 1.f.,.$ $ + + * 2 5 : x Q p p & $ $ : 3 : # < 3 ` f.u : ",
"  @ b O S @ % @ @ = 1 * 7 2 l v D G $.&.%.D V c k 2 2 O O & G 1.@ k 5 1 ^ e.Q # + $ $ + * 5 5 ; l N 4 1 5 2 1 4 2 1 4 5 c N 5 4 ",
"  $ n @ D % & % @ = * @ =   O . X O O O + O O O O O @ O + & D -.+ 5 5 1 F ^ B # + + + $ O ; 2 2 < l y 2 4 4 4 5 5 y y y k c k k ",
"  + V @ $.$ 5 x 5 1 * * * . + O O . X O O O X O O O O @ @ & S &.+ k 2 1 B F c # # + + + + # & 5 2 : 5 5 9 5 p i N C ^ ^ :.1.1.1.",
"  @ S @ =.@ B n.| 5 * * * ; N 3 + O X   X O X O X O @ O O * S F + 9 2 1 x V x % + + # + + + $ $ 2 1 1 1 4 1 1 1 3 1 4 3 3 5 t 4 ",
"  $ V % -.% 5 y 5 2 * & * r P.F.F x z 0 z 0 O O O X O X X & n V @ 5 5 < z b l l 4 5 p l c l y 4 9 9 5 9 y M B C E ^ ) q.w.w.w.:.",
"  @ V * ;.@ &   @ 2 * # 2 # u > +   X X O * 0 O O O X O @ & b c + 0 2 $ l 2 z l a B D | ,.| F c 5 5 5 O + + + $ + $ $ O # # # # ",
"  @ b % =.@ *   % % 2 % = 5 k 2 X   . . O @ * 9 2 1 2 * O * B n % l 1 @ * 0 5 x l x z z x z z 9 l * 2 2 + + + + + # O + + O + + ",
"  X x + %.@ %   @ . % * % % * * = . . . . . . $ * * $ B c @ 5 ..n 2 0 0 @ @ B ) 8.h.a.| S 1 1 9 O p $ 5 + + # + + + # + + # # + ",
"  X i O J % %   o   . = = 2 * % 1 * X   . O # # + O # > ^ S $ l a.V 5 0 5 5 9 x B l y 5 3 B # p $ l $ c # + + + + + # + + + + + ",
"  . 5 % V % %   o X   . . . = * * 2 X . . # D | ; + D h.3 3.S $ x M.m 2 l l 0 # * 2 O # 4 c.r v 3 g.g g.r $ + + + + O + + + + O ",
"    5 @ N X %   @     .   .   2 @ 1 . . O + | | # : r. .; $ 3.&.# x a.b l Z 1 9 + & 2 $ F x.( Z G F.V.B.A # # O # # # + + + + + ",
"    & @ k @ %     % X   . . . 2 @ = . . . O 2 1 $ 9 : $ + O @ t.G * l Q 0 N e.5 0 @ * 5 3 N > 1 V E L ) a ; * : y u > + + + + O ",
"    * X 5 o % o .   o X . .   2 O 2 O . . . @ + p + O O O . O # &.B + 1 1 2 G N.1 0 + < 5 9 7 2 & < 3 i 5 1 1 y ( K.s # + O + O ",
"    % X = o . @ % X . o     . 2 @ 1 . . . O 2 Z $ . @ * O O . + # A l O O @ 2 ^ H.5 9 + + + @ 2 & 2 c &.c : * y R y.f ; # + + O ",
"    @ X = . % O X % X O     . 5 @ * X   O 2 ) 5 - * 6 6 . o . X X O v c ; : # 1 ^ M.1 7 0 9 l l 2 l Z d.F $ + * 4 i 5 * & & O O ",
"    @ . *   x l @ 1 p b + X c * @ 2 X X 7 h.c @ . . . . . . O o O . # o.g.u # @ 1 S w.& O @ 1 ^ 5 < 4 c 3 $ $ + # @ O @ % * & O ",
"    @ @ 2 # <.| l c &.1.: F 2 O = @ . 5 n.N @ . . . . . . O X . . . # d F.d # O O 2 b A + + F N.q.V V ^ ^ $.V l 5 2 * O O % * % ",
"    @ * 5.B B h N ^ t 3 7.9 @ = o X 1 a.y #   . . . . . . . X % X . + # r ; + . O @ 1 l l @ 3 ^ F y l b V V a 5 < 2 = & + X @ & ",
"    o % $.S 5 5 S &.< a.b @ = X O 1 E 5 + $ . . + $ + O O O * 2 . X . . + O O O O O # 4 l 5 0 k + O O O O O O O O X 2 = * O O O ",
"    o @ 5 5 *   $ 5 &.k @ 2 X X * v # # 5 [ $ $ c B $ + o O X . . X O = + O O $ O O 4 ^ 4 2 X @ + X O * O * O X * @ O 2 * * + O ",
"      @ @ o o o @ b k @ 2 X X % p # 6 5 V 8., 2 ;.2.: O * * * * * * 1 2 O . 9 9 O # G h.u x + O + + # 2 * 2 * @ = & O O 2 = & & ",
"                1 1 c &.% . * 5 l V 9 @ # p $ $ l , # * + . . . . o O * . * c A < * y C d p.: + 3 F ; 1 * * $ O + + O X O & = 2 "
};
