/* XPM */
static char *_31e06fcbdf4487d84702db2e4ca721bB5M3nUKp6h9FU4ru[] = {
/* columns rows colors chars-per-pixel */
"64 64 126 2 ",
"   c #453D3C",
".  c #483F3E",
"X  c #48403F",
"o  c #4C4442",
"O  c #4F4A49",
"+  c #504645",
"@  c #524947",
"#  c #554C4A",
"$  c #584D4B",
"%  c #57504E",
"&  c #5A504F",
"*  c #5D5351",
"=  c #5F5857",
"-  c #615654",
";  c #635957",
":  c #655B5A",
">  c #6A5D5C",
",  c #67605E",
"<  c #6B615F",
"1  c #70615F",
"2  c #685F60",
"3  c #676160",
"4  c #6C6362",
"5  c #6F6866",
"6  c #6F6A69",
"7  c #726664",
"8  c #746966",
"9  c #796867",
"0  c #756B6A",
"q  c #7B6D6A",
"w  c #77706F",
"e  c #7D706D",
"r  c #7D7372",
"t  c #82726E",
"y  c #847573",
"u  c #857976",
"i  c #8B7977",
"p  c #847B7A",
"a  c #8B7C79",
"s  c #907D7D",
"d  c #8E807B",
"f  c #92827D",
"g  c #99857E",
"h  c #8D8281",
"j  c #938582",
"k  c #918685",
"l  c #9B8782",
"z  c #9D8783",
"x  c #9E8782",
"c  c #9E8783",
"v  c #938987",
"b  c #958985",
"n  c #9F8A83",
"m  c #9B8A87",
"M  c #9D8984",
"N  c #9E8884",
"B  c #9F8985",
"V  c #948988",
"C  c #978B88",
"Z  c #968B89",
"A  c #968C89",
"S  c #988B88",
"D  c #9A8C8A",
"F  c #9D8D89",
"G  c #988D8C",
"H  c #998F8D",
"J  c #96908E",
"K  c #9D908B",
"L  c #9B908E",
"P  c #9C918E",
"I  c #9E9290",
"U  c #9D9593",
"Y  c #A08A83",
"T  c #A18A85",
"R  c #A18A86",
"E  c #A18B86",
"W  c #A18B87",
"Q  c #A18C88",
"!  c #A08D89",
"~  c #A38F8D",
"^  c #A28F8E",
"/  c #A38F8E",
"(  c #A5928B",
")  c #A3908E",
"_  c #A3908F",
"`  c #A6918D",
"'  c #A9938C",
"]  c #A9938D",
"[  c #A9948D",
"{  c #AA948E",
"}  c #AB958E",
"|  c #AB968F",
" . c #A49292",
".. c #A59292",
"X. c #A69591",
"o. c #A49492",
"O. c #A09695",
"+. c #A59694",
"@. c #A79796",
"#. c #AA9794",
"$. c #AB9794",
"%. c #A59996",
"&. c #AD9891",
"*. c #AA9995",
"=. c #AB9995",
"-. c #A89997",
";. c #AA9A96",
":. c #AA9C99",
">. c #AC9D9A",
",. c #AE9E9B",
"<. c #AB9E9C",
"1. c #B09F99",
"2. c #B09F9A",
"3. c #AEA09D",
"4. c #B1A19D",
"5. c #AEA2A2",
"6. c #AFA4A2",
"7. c #B4A4A0",
"8. c #B4A4A2",
"9. c #B8A7A1",
"0. c #B6A8A6",
"q. c #B9AAA5",
"w. c #BAACA9",
"e. c #BCB1AD",
"r. c #BFB3B2",
"t. c #C0B0AC",
/* pixels */
"Y n n n Y n n 7 ( Y Y Y Y Y Y Y Y n 0 T T T T W T W T W a q t t t t t t t t t * +./ _  ./ / / / / / 0 } ' ' ' ' ' ' &.} [ 0 g 4.",
"Y Y n Y n B n < n Y Y T Y Y Y Y Y Y 7 T T T T B W T R W a 2 t t t t t y t t t *  . . . ./ / _ o./ / 7 ] ' } ' ' ' ' } } ( < g 4.",
"; = @ 4 4 3 : = = * % @ o # 4 4 < > - - * $ # o - 4 2 2 3 * % % @ +   q w 0 q 4 9 q 7 > > $ w 0 e 0 4 7 1 < , - = 7 8 0 8 , 1 d ",
"t t - 0 * * $ $ $ # $ $ $ 3 < - * - & * * * & $ w : * $ $ $ $ $ $ $   4.! B B T B B c x x 7 P f d a d f d d d i e d y t t t t A ",
"t t ; : $ $ $ $ $ $ $ # $ = * * * * * * - & * $ 4 $ $ $ # $ $ $ # #   &.Y x x n B x x B x 8 j s d f d d d d d u 1 t t e t t t A ",
"t t - $ $ $ $ $ $ $ # # $ % * * * * * * $ - ; $ * $ # # # $ $ % # # o _ x x x x x B c x x 7 a s d a f d d d d d < t t t t t t A ",
": : o o o o # o X X o o o   o + + + + + + $ #     o o o . o o . o o   8 9 8 9 9 9 9 9 9 9 $ 1 1 1 < < 1 1 < < < # , - , , , , y ",
"u y t q 0 q 7 $ P j h a u u y e q 9 4 4.=.=.} _ G _ T l y a J Z A h h a a u y * 6.,.-.%.+. . ./ F B 4 O.n b b f d d d y e < d I ",
"9 9 9 9 r 9 9 * f t t t t t t t t t q *.' ' ] ] ' ' ' ' j d d a a d a d s a a ; 0.*.#.#.#.#.$.$.*.*.q D a d a a d d d d u 4 q d ",
"9 9 9 r 9 9 9 * d t t t t t t t t t 0 } ' ' ]  .' ' ' ] f r a d d a d a a s h ; 8.*.#.#.#.#.$.$.$.,.0 h d a d a d d d d d , 9 j ",
"9 9 9 q 9 9 9 * y t t t t t t t t t 7 _ ' ' ' ' ' ' ] ] f 0 d a d d a d a a a ; #.$.*.=.#.#.#.#.*.=.5 a a d s a y d d u d = 9 j ",
"$ @ o ; ; ; ; = ; * % % @ % 4 4 4 4 < 8 7 4 > - 4 0 0 0 7 4 4 4 4 : # 4 5 5 7 > 0 7 7 2 2 - q t r q 4 7 4 4 > > % , , , : * = w ",
"* * $ r : - * $ $ $ $ $ $ 0 Z j f a a a u i i q v b b g f d f f d d ; >.j f s a i i i i i 9 ,./ E T T c x x x s 0 1 > ; ; - * e ",
"* * $ : $ $ $ $ $ $ $ $ $ 8 a i i i a i i i i 9 d a d a d f f d d d ; G i i a i s i i i i 9 W c B n B c x Y x s : * * - & & & r ",
"* * # * $ $ $ $ $ $ $ $ # 4 h i a a i i i d i 8 y d f a f j a a d a ; x i i i i i i i i i 4 T x Y B x c Y Y B g * * - $ - & - e ",
"@ @ o o + + o + + + o + @ * 9 0 8 0 8 8 8 8 8 : < 9 q q q q q 0 q q % 9 9 9 9 9 9 9 9 9 9 & y t t y y t y t y q o @ $ & @ # @ 0 ",
"4 : - * & # +   r r q 0 0 4 2 : ; - * p r r w w 0 8 4 3 ; ; 4 4 3 = = * # @ o   a h a p y y q t 9 9 $ 9 4 4 : ; * * = + o % 0 h ",
"* * - $ * * & $ f 9 q q 9 9 9 9 9 9 6 s a a i a p a a a q 5 $ $ $ $ $ $ $ $ $   5.R W R W R W W T T 2 2 $ $ $ $ # * $ $ # 4 * w ",
"* * * - & - * $ i 9 9 9 9 9 9 9 9 9 4 a a a i p a i i i q 3 $ $ $ $ $ $ $ $ $   #.W R R W R W T W T 2 * $ $ # - % $ $ $ # = * w ",
"* & $ - * & * @ 9 9 9 9 9 9 9 9 9 9 : a a a i a a i p a q # # $ $ $ $ $ $ $ $ o  .W W W T T T T W W : $ $ $ % - * # $ $ # # * r ",
"o o . + + + + X $ & & $ % $ % % $ & o - * - * * ; ; ; ; % X o o o o   o o o O o 2 < > < > : 2 > > > o o o o o     o o o o   o 6 ",
"y t > w.2.2.,.#.$._ / / ! 4 e 8 7 4 2 : = = - + h A Z j j d i u y r * w.,.,.*. ._ / F T x 5  .S B k f a a y t e r D A b h d a I ",
"t t > #.T W T T T T E T T 4 $ $ $ $ $ $ $ - & + u t t t t t t t t t * -.m B x l j l x B m 7 i t t t t t t t t q 0 t t t t t t D ",
"t t > / W T W T ! E T T T * $ $ $ $ $ & - & $ o e t t t t t t t t y &  .S j x m l l m m m 2 t t t t t t t t t 9 4 t t t t t t A ",
"t y ; / B ! T T T W ! W ! @ & # $ # * * $ $ $ o 7 e y q r t t e t t & F l Z l l m m x x S : t t t t e t e t t q : t t t t t t Z ",
"; - * = # + o   0 0 0 0 4 < : ; - * # 2 2 : = = * # @ o   % 4 4 : : = * # # o   q w 0 6 9 2 2 2 : - # r r r q 0 8 7 4 > > O 3 p ",
"$ * * $ $ $ # # Z t t t t t t t t t 2 2 $ $ $ $ $ $ # # + 0 * * * $ * * * * * o O.p a i a p i s h a 7 #.Y x x x x B x x m 4 * r ",
"* * $ $ $ # # + a t t t t t t t t e 2 # $ $ $ $ $ $ $ # @ 4 * * * * * & * * $ o Z a i i a i p s a i 4 T B x x x x x B l l = % r ",
"* $ # $ # $ # O y t t t t t t t t t % $ $ $ $ $ $ $ $ # + = * * & % * * $ * =   f a a i i a d i i a 4 B g Y Y Y g Y Y g l @ $ 0 ",
".     o o . o   * - * - - - - * - *   . . .   o X X . .   o + o o o o o o o .   : : : : 4 < : : : : o < 1 < 1 1 1 1 1 1 1     4 ",
"d a : h r r r 0 7 < : * # 8 3.O.O.O./ G Z k a 0 G 8.8.5.5.<.-.+._ F > 5.U  ./ P G k h a a 5 0.3.4.,.*.#.] K n f y >.*.O.P P G <.",
"s a : 4 # # $ # $ $ & % $ 8 d d s p p s a a a 0 A /  . . .E / _ / _ < I a i a a a i i i p 8 ] Y n Y Y T n M n g r d d d d f a o.",
"d a : - # $ # # $ $ % ; & 4 a a h a d a p s s 9 s /  ./ / / / / / / 4 B a i a i i i a i i 0 Y Y Y Y Y n g [ g g t g d d d d f ( ",
"d f ; $ $ $ # # $ $ - % $ : a a a d a a h a s 9 a / / / / / / / / / > h a i p a i i p i i : Y T Y Y T g E g g g < d d d i f d ( ",
"> : % % @ + o   ; : = = = : 4 3 : : $ 4 2 2 2 : 2 2 : : * : 8 7 4 7 ; > : - = # 3 4 4 2 4 : 4 < , < * 9 7 7 7 8 < < , , ; % , u ",
": & % $ # $ $ % 3.D v j h d a a d a 0 s y y t t 9 9 9 9 2 p a y y q q 9 9 9 9 $ %.a i i u y t t t t 3 *.D b b g f d d d d , , d ",
"$ $ $ $ $ $ $ # D a d a a s a h a d 8 0 9 9 9 9 9 9 9 9 < q 9 9 9 9 9 9 9 q 9 & j y t t t t t t t t < B d f f d d d d d d ; # 0 ",
"$ $ $ $ # # $ @ j d a d a s s a d a - 0 9 9 9 9 9 9 9 9 2 2 9 9 9 9 9 9 9 e 9 & i t t t t t t t t t , d g f d f d d i d d & $ w ",
"@ @ @ + @ @ @ o e e w e q r r q q q $ > : 2 2 2 2 2 2 1 - * 2 2 > > 2 2 1 2 1 @ 9 7 7 7 7 7 7 7 1 1 & e e e e e q t e e e X @ 8 ",
"8 7 % i r r q 0 8 4 < : - 2 Z k h h h h i i y 1 q s p y y t q 0 9 9 $ I G k h s a i i y y - h a u y y e e 7 8 4 , d d p y e w b ",
"i i : a 0 9 9 9 9 9 9 9 9 t / /  ./  . ./ / ~ i h p i i a p i i i s : 8./ / / / / / / / _ 6 j a i p a i a i i u r i a u a i a U ",
"i i : y 9 9 9 9 9 9 9 9 9 0 / / /  ._ / / / _ i u a a a a a a i a a - <./ / / / / / / / _ 0 a a i a i i p i i y w i a i a i i U ",
"a a : 9 9 9 9 9 9 9 9 9 9 4 /  . . ./ / / / _ i q a i i i a a a i i - +./ / ! / / ! ! / / 2 a i i a i i i i i y < i i i i i i O.",
"4 : O * * $ # + - - - - - * 7 q 7 < ; < > 2 > : $ ; ; - % * - : : : $ 2 4 > : - 7 7 4 4 4 * : : : ; = : : : : ; & , , ; = = 4 r ",
"4 : - * $ $ $ $ w.#.#. ./ T T Y m x 4 y q 7 4 > > ; * * $ 0 0 7 2 : ; - $ $ $ . ,./ G m h j s a a a 4 >.U P D v j h d d h 0 0 h ",
"$ $ $ $ $ $ $ @  .c T x T x x x x x 4 - * - & * $ - $ - $ 4 $ $ $ $ $ $ $ $ $ . / p a a a a a i p i 4 b a d a d a d a d j : # 0 ",
"$ $ $ $ $ $ $ O T c x T x x Y Y x x : * * * - $ - & * * # ; $ $ $ $ $ # $ $ $ . h i i a a a a a i a 3 s a d a d d a a a d % # 0 ",
"# # # # @ # # O g g s g g s g s g s $ $ $ - $ & & $ * * # o @ # # # # # # + $   y p i y y y y y y y = p u p u u u p p u p o # 0 ",
"1 > # 0 9 0 5 1 4 2 2 ; ; $ 2 4 2 : * & & + o . 2 r p r q 0 0 7 7 7 # 0 6 0 8 4 4 4 > : ; $ r r r q 0 q 9 7 1 4 ; y y r e 7 8 d ",
"} ' 7 F s i i i a a i i i 2 2 - * * * * * * * #  .,.#.#.=.$.$.=.$.@.4 +.a a a a a a a p a 8 2.$.' ' }  .' ' } T a } } ' _ } } 9.",
"' ' 9 j i i a a s s i i i : * * * * * * * * * $ D $.#.#. .=.#.=.$.$.7 Z a a i i a a a a i 0 $.' ] ] ] ' ' ' } ! u } ( ' ' } } 8.",
"' _ 9 i i i i s s i i i i $ * * * * * * * * * * j $.#.#.#.#.#.%.#.#.7 k i p i a a a i i i 7 ' _ ]  .' ' ' } } E e } } ( ( } &.4.",
"9 q $ > > > 2 > > : > > 2   o o o + o o o o + . 2 t t q t q q q 9 q & > > > > > 2 2 : 2 2 $ 9 q 9 t 9 t t q 9 9 & q q q q q q M ",
">.*.#.#. . ./ 4  ./ x j j s s i y y 1  .D m j j s i i y 7 h P / Z Z j j a a p - O.G m j j h s a y y 4 8.4.2.=.$.] } ! T n r 7.e.",
"*.=.&.#.=.=.=.7 m s i s s i i i s i 9 s i i i i i s i i q p s s d d a d a s a = P i i i a i i i a i 0 2.' ' ' ] ] ] } ( _ y O.q.",
"*.=.*.#.=.=.$.9 s i i i i i i i i i 2 i s i i i i i i i t r s a d d f f s s a > Z i a a i i p i i s 0 ' ' '  .] } ] } } _ r &.w.",
"=.$.$.$.$.=.$.8 s i s i i i i i i i : i i i i i i d i d q q d d d f g d d d d ; s p i p i i i i d d 1 } } } ' ' ' ] $.} _ 0 $.9.",
"> > % 4 4 4 4 ; - - & $ + $ 2 2 4 4 ; > : - * # , 5 1 < < , 1 , < < @ > , , < - ; = * $ O # 0 0 8 0 1 9 7 1 1 1 ; 0 0 0 0 4 7 h ",
"i i : y > ; - * * * * * * 6 s y y 9 9 9 9 9 9 > b g g d g d f g d d = u : & & % $ $ $ $ $ : ,.( ! n g ( Y Y E g u j h a a i a U ",
"i a : < - & * * * * * * * 2 9 q t 9 9 9 9 9 9 > d d d d d d d g d d - 9 $ $ $ $ $ $ $ # $ 2 ( n ! g ( g E g g g 0 a i i i i i P ",
"i i : = * & - & * * * * * : q 9 9 9 9 9 9 9 9 > r d d d d d d f d d - , $ $ $ $ # $ $ * $ : Y g g g g } n Y Y g 7 a i a s a a U ",
"8 7 # @ @ # @ @ @ @ @ @ & # : : ; ; ; ; ; ; ; % , 8 8 1 8 8 8 8 1 8 # @ X @ @ X o o o o X $ t t t t t i t t t q * 7 7 q 0 7 4 h ",
"d i i p y y q * G j j s s i i y t q : b j f d d i i u t 1 0 p d i e e 0 8 7 1 @ A Z h h f d a p u u ; F B v k f a s a a y : b O.",
"4.,.,.,.2.2.2.s w.2.2.2.,.,.,.,.4.3.Z 8.4.4.4.4.3.4.4.4.I J v n P S S S S S S e r.8.q.4.8.8.8.9.4.4.f t.9.9.8.8.0.w.9.9.9.P 4.t."
};
