/* XPM */
static char *f6f5dfbd2282481eb9a7ab3e2aea0523j921nzR3dMmLVDrZ[] = {
/* columns rows colors chars-per-pixel */
"64 64 241 2 ",
"   c #663E26",
".  c #733C20",
"X  c #664627",
"o  c #6D4225",
"O  c #65432B",
"+  c #6B452B",
"@  c #6E4B2D",
"#  c #734426",
"$  c #73452B",
"%  c #794528",
"&  c #744A2D",
"*  c #7B4B2D",
"=  c #79512E",
"-  c #694934",
";  c #6C4B34",
":  c #744C33",
">  c #7B4D33",
",  c #784A35",
"<  c #734E3A",
"1  c #6D513C",
"2  c #765135",
"3  c #7D5234",
"4  c #7F5A37",
"5  c #75533B",
"6  c #7C543B",
"7  c #7C5A3D",
"8  c #685143",
"9  c #745440",
"0  c #7C5641",
"q  c #775A43",
"w  c #7D5A42",
"e  c #7B5D48",
"r  c #7F604A",
"t  c #824C2C",
"y  c #8B4E2C",
"u  c #914F29",
"i  c #8C5327",
"p  c #85522E",
"a  c #8D522D",
"s  c #93542D",
"d  c #97572E",
"f  c #99592E",
"g  c #814E32",
"h  c #814F38",
"j  c #835434",
"k  c #8C5534",
"l  c #845937",
"z  c #8C5935",
"x  c #83553B",
"c  c #8A573A",
"v  c #845A3C",
"b  c #8B5B3C",
"n  c #925633",
"m  c #995735",
"M  c #955A35",
"N  c #9B5C35",
"B  c #945C3B",
"V  c #9A5E3A",
"C  c #A15E3A",
"Z  c #A75E38",
"A  c #87603D",
"S  c #8C613D",
"D  c #976137",
"F  c #9E6136",
"G  c #95613E",
"H  c #9C623C",
"J  c #9D683E",
"K  c #A16236",
"L  c #A2643C",
"P  c #A9623D",
"I  c #A3693E",
"U  c #A96B3E",
"Y  c #835741",
"T  c #855C43",
"R  c #8B5D42",
"E  c #845E4A",
"W  c #935E41",
"Q  c #9B5F40",
"!  c #856144",
"~  c #8C6244",
"^  c #8F6945",
"/  c #84634C",
"(  c #8C654B",
")  c #8E694E",
"_  c #946344",
"`  c #9C6443",
"'  c #956944",
"]  c #9C6A45",
"[  c #93654A",
"{  c #9A6649",
"}  c #956A4C",
"|  c #9C6B4B",
" . c #9D7147",
".. c #9D714C",
"X. c #856452",
"o. c #8A6651",
"O. c #866A56",
"+. c #8C6A54",
"@. c #8C6D59",
"#. c #906550",
"$. c #936C53",
"%. c #9B6D52",
"&. c #936D5A",
"*. c #8F7153",
"=. c #8E715B",
"-. c #947155",
";. c #9B7254",
":. c #9E7856",
">. c #94725B",
",. c #9B745C",
"<. c #9D7A5D",
"1. c #A26642",
"2. c #AA6444",
"3. c #A36A44",
"4. c #AA6D43",
"5. c #A36749",
"6. c #A36C4B",
"7. c #A96D49",
"8. c #A57146",
"9. c #AA7246",
"0. c #A4734C",
"q. c #AA744B",
"w. c #A5784D",
"e. c #AB794E",
"r. c #B0744A",
"t. c #B1794E",
"y. c #A36E51",
"u. c #A37453",
"i. c #AA7552",
"p. c #A57953",
"a. c #AC7B54",
"s. c #A2765A",
"d. c #A8775B",
"f. c #A57B5C",
"g. c #AB7D5B",
"h. c #B17650",
"j. c #B27D53",
"k. c #B27E5A",
"l. c #937461",
"z. c #997862",
"x. c #9C7B62",
"c. c #947A6B",
"v. c #9B7D6A",
"b. c #A47D63",
"n. c #AA7E62",
"m. c #A17E6A",
"M. c #B17F61",
"N. c #AD8156",
"B. c #A6805C",
"V. c #AD815C",
"C. c #B48156",
"Z. c #B3825C",
"A. c #B9875D",
"S. c #9D8166",
"D. c #9D826C",
"F. c #9E8876",
"G. c #A38265",
"H. c #AC8363",
"J. c #AF8863",
"K. c #A3836C",
"L. c #AC846B",
"P. c #A5886F",
"I. c #AD8A6C",
"U. c #B28463",
"Y. c #BA8764",
"T. c #B48963",
"R. c #BA8B65",
"E. c #B2866B",
"W. c #B38A6C",
"Q. c #BB8C6C",
"!. c #BA906B",
"~. c #A48672",
"^. c #AB8672",
"/. c #A48B73",
"(. c #AB8B74",
"). c #A48B7B",
"_. c #AD8D79",
"`. c #B38D72",
"'. c #B98E75",
"]. c #B18E79",
"[. c #A79178",
"{. c #AD927B",
"}. c #B49174",
"|. c #BB9374",
" X c #B3937C",
".X c #BB957B",
"XX c #BC9978",
"oX c #BD9A7C",
"OX c #C2926F",
"+X c #C19B76",
"@X c #C1967A",
"#X c #C39A7D",
"$X c #C5A17F",
"%X c #AB8F82",
"&X c #AB9482",
"*X c #B49582",
"=X c #B99683",
"-X c #B69982",
";X c #BC9B83",
":X c #B69C8B",
">X c #BA9D89",
",X c #B99E90",
"<X c #BEA185",
"1X c #BCA38C",
"2X c #BDA393",
"3X c #BDAB99",
"4X c #C29D83",
"5X c #CA9E81",
"6X c #C59F89",
"7X c #C5A185",
"8X c #CBA384",
"9X c #C4A38B",
"0X c #CAA58B",
"qX c #C6A98C",
"wX c #CAA98F",
"eX c #D0A98F",
"rX c #C3A593",
"tX c #CAA691",
"yX c #C5A994",
"uX c #CCAC93",
"iX c #C7AE9B",
"pX c #D4AC93",
"aX c #D6AE98",
"sX c #C6B19C",
"dX c #CCB39B",
"fX c #D6B499",
"gX c #D3B39C",
"hX c #C6B3A3",
"jX c #CBB5A3",
"kX c #CDB8A5",
"lX c #CDBAAB",
"zX c #D5B6A2",
"xX c #D9B7A4",
"cX c #D5B9A4",
"vX c #DBBAA3",
"bX c #D4BDAB",
"nX c #D8BEB1",
"mX c #D8C1AC",
"MX c #E4C5AE",
"NX c #E1C6B5",
"BX c #E0CFC5",
/* pixels */
">X6X8X5X@XoX@X@X.X@X'.oXtXgXcXgXtX;X X;X1X9XqXwXuX0X4X;X X X_.:X1X-X&X(.{.(.{.-X>X9X&X>X>X2X2XkXhX2X:X,X2X:X,X,XrX2X2X2XyXyXcXiX",
"n.L.M.g.Z.R.U.Y.Y.n.g.U.n.u.d.n.f.:.V.f.G.H.f.;.p.H.g.Z.H.<.v.2XlXl.=.>.-.} ) +.T E $.X.o.E / o.@.@.l.l.=.l.O.X.r l.l.X.@.>.O.O.",
"y.y.5.2.` 3.] ` { 3.6.] ` G G 4.U I F H 9.J H I i N P f N G u.'.dX$.^ l z z M S _ k B c c W b B c k j l j p l z x g l j g : 5 5 ",
"y.` 1.3.9.L H J F 1.H H H 3.I L N H F N F U H d L K u F 4.] | E.pXT x b j k p z G c c g j j c b l l k k p k j = j % j k g j : : ",
"| 0.q.H H 3.I 4.r.I I L d d F V n V V B V n F 1.4.1.3.L I ` %.L.uX0 ( T b c l c b R x Y R [ b ! b j > j l j j j j l l = g g > > ",
":. .0.G 4.3.3.4.L I L L I 9.3.n M H n B B 3.5.` 6.` 1.H ' { $.^.uX0 E E ! 6 x v j T > x R R ! ( 6 & 4 v & o $ > $ 3 > 3 > g & : ",
";.u.7.7.0.] 3.3.3.H 3.L H G B 1.L L N V 1.4.4.3.4.L L L L 6.| E.pXY T c R b B _ k j l k x c c c v 3 j # # j j = j & # *   & & 6 ",
"} y.| u.| | _ _ ] 3.0.i.] | u.` B 1.n 3.4.7.q.H H 3.3.L 3.u.^ E.aXE T #.R c j l l j j 3 x c x > > 3 x x ! R v 6 $ 3 + > > 6 2 ; ",
">   * $ % * g g k * # # $ 6 : & @ * j j = * # # $ = * # # + O K.xX9 - - O +     + + X X @ X : O : ; O + ; O @ O O O O - +       ",
"4XoX!.|.Q.OXOXOXA.0.| { ! } I.x.G.oXS.f.L.G.G.b.G.(.}.^.v.v.D.2XnXiX*X=X=X=X=X>X;X1X-X X[.D.F.{.).D.^.(._.~.K.D.*X.X=X XK.d.f.].",
"| { ] ] | y.i.a.a.a.u.d.n.<.gX#XW.W.W.E.Q.@X|.I.W.XX#X#XXX4X;X X X.X X`.|.`.}.}.I.W.H.I.I.I.P.fXuXn.f.f.d.f.f.d.;.f.p.u.u.y.u.u.",
"` ] 5.B 3.6.8.3.3.1.5.{ %.>.uX+XV.p.N.Z.k.A.q.w.N.N.Z.U.V.k.H.V.V.U.g.Z.a.N.N.p.N.p.w.a.V.V.B.8X5X] H B H ` 3.H G V M B Q m ` W ",
"L L C N L F ] H L Z Z 5.%.,.dXXXT. .a.j.j.9.e.9.e.e.a.w.] e.a.e.a.Z.N.N.w.e.e.w.w. .8.w.N.B.-.oX;X| ` V H V 6.V 1.1.V m Q V m k ",
"m Z u Z P F H 3.m Z Z 2.y.,.gX#XU...a.a.9.9.9.e.e.a.3.H 4.q.e.4.q.h.8.8.8.9.9.U U U 4.4.j.0.] @X.XD F M d F F F L L L N L 4.P 5.",
"C N P U I F 3.H ` C P 2.u.:.uXXXf.p.q.9.j.t.t.8.] ] 0.8.G J 8.] H J J J J 8.4.4.4.L C 4.V ` | Q.#Xz i i H I L K N U I K N H 3.7.",
"3.3.N N D J 0.' 6.3.] ` ;.-.uX$XV.u.p.C.8.L J J a.a.u.0.N...p.0.p.N.N.N.A.w.g.i.a.w.k.A.g.g.b.^.;X{ 3.] 8.3.` 3.` V ` 3.3.0.| | ",
"` 3.5.5.H G ` _ 6.V Q B { &.uX.X:.f.g.0.' 0.p.g.u.g...i.6.d.g.g.u.u.Z.k.a.q.J ` w.e. .] p.f.p.P.oXR z ` 6.` ` Q W W ` B c 5.{ y.",
"&   $ # # o o > & > j & : 9 gX(.; & + # 3 * > o 3 6 4 : 2 : v 7 v ~ c * = = 4 2 = = o @ @ X O {.1X( o.w / / X./ X.( X.X.( ~ E x ",
"oX].].|.}.oX<X<X<XoX$XwXyXiXbXgXL.,.z.I.`.L.b.-.,.$.*.S.S.D.P.{.<X-XP.H.H.W..X].P.S.x. X{.1X>XcXkXjXyX2XkXsXjXcXkXkXsXsXsXgXuXgX",
">.$.[ $.[ [ z.$.,.-.,.( ,.&.>.@.&.>.#.,.+.( ,.$.$.,.z.b.,.&.x.gX9Xb.f.d.%.a.k.y.u.6.i.u.0.| %.y.y.0.p.} | ` _ G u.6.0.0.' %.%.>.",
"/ ! T 6 ! v x o.( T ! ( v Y E [ R T T ! R T T R ( T ( 6 q 5 / ;X0X-.[ | 0.` ` 5.1.5.Q 5.` 1.5.Q Q V C V m V V 1.V L 1.H V _ ! $.",
"/ w ! A v ! b R v ! l 4 v ( [ R _ _ R b R R R [ x ^ v 7 7 7 ! oXoX~ [ G t a y n n y Q Q 5.M Q Q 5.2.C V m m n m V C V H V b ' [ ",
") ^ R k B B B R B _ S S ' c ` B _ k b _ b c c c z b l b j ^ ( #X5X| G H L L N C f f y V m K N C m N M N N N H V V N M D D M `  .",
"$.! R j _ R R R ~ G M M ] B ' G S c z b c G j b _ b = j v ( } 7X5X_ z D d u u d N L m L C f C L C s M N N m N V M N H M D M ` ' ",
") ! } $.[ [ } ! ! G ' ' ' [ | ~ b v l b R b ~ _ ^ 4 l ( -.z.$.6X4X[ u.] 3.1.V M m V ` 3.1.5.V ` m ` ` Q W Q Q B B H { 3.k { { [ ",
">.! ( ( [ $.) ( ! [ c _ [ E / / ! ( ) ( x T ( $.T ) >.,.,.X.r -X9X$.} | | _ | B _ 0.b W W l { B b # : R [ W [ [ [ ~ R > 3 > : 0 ",
"q 7 7 5 6 < @ ; + & $ $ : - 8 ; ; ; ; 2 7 5 6 5 ! r r r ; 9 q yXrX< 7 ! 6 & @ 2 7 @ 7 6 : T 6 5 5 6 T 0 6 6 , : < & < - < Y 0 9 ",
"qX0XoX7X@X'.'..X.X@XW.}.m.*X>X>X-X;X>X9X4X9XuXwXqXyX-X7X>X1XkXNXmXxXdXwXoXXX<X7X;X7X0XqX9XuX9XuX1X9XaXtX6X6X6X6X6X6X6X0XpXaXaXvX",
"H.n.n.d.g.U.f.H.H.H.U.W.K.).NXdX9XwXwXwX6X#X4X;X>X7X7XoX9X9X9X9X<X<X$XqX7X$XoX<X7XoX;X7X9X4X=XaXrXL.n.n.b.n.n.n.L.n.<.;.L.L.H.n.",
"G G ] 3.G B j _ { 0.| | #.l.cX4XI.W.I.B.} p.H.J.H.H.f.U.H.H.G.H.<.B.-.I.B.B.f.f.n.n.U.H.H.W.^.=X4X} | _ B _ ` W ` _ b | 6.5.Q ` ",
"V F M n n ` ] 6.` H 1.7.%.K.xX;XH.H.V.u.g.Z.V.g.p.H.Z.Y.a.V.p.p.....p...' p.f.p.a.u.| ] g.d.n.L.4XB 3.H 1.L 1.F V H H H V N M m ",
"5.P 1.V L 3.1.H L 3.6.q.%.b.xX5XH.;.b p.e.0.w.Z.p.a.g.q.8.6.0.3.0...] .. .' | ' 6.` 7.a.a.V.d.n.oXV n N N 1.P P C V N V N L C V ",
"H 1.3.q.H V D V N 7.7.i.%.z.vX@Xf.f.p.p.e.a.e.k.0.N.q.q.8.q.8.q.q.e.0.0.6.0.u.] ] q.w.8.i.u.p.n..XB 5.L V P C N n u s s m M m V ",
"q.7.3.6.6.' ] { 9.h.k.k.d.z.zX9XH.V.Z.a.C.C.Z.A.a.N.C.N.C.t.C.a.C.e.0.` ] g.p.p.0.w.9.6.p.p.;.^.0X{ 7.1.4.5.7.Q V V Q B B k k M ",
"i.6.B 3.| y._ 6.6.{ ] y.b.b.fX@XI.H.V.V.V.R.Z.p.p.U.Z.Z.e.N.N.u.u.g.Z.g.Z.N.f.N.U.U.U.J.f.:.+.].9X%.' { { { B { 5.B { { _ b 6.%.",
"& * g j j j g > & > 3 > 2 T dX|.7 v 4 4 2 = 4 ! ~ v A l 3 4 v 5 5 2 2 = 6 & & 2 2 6 ; 5 < < ; *XrX! b R b T T R R ( ( R [ b R #.",
",.n.Q.'.`.^.^.m.b.^.m.z.=.l.gXfX/.z.K.(.-XoX/.}. X(.W.S.K.[.~.&X:X).D.~.D.D.G.{.I.(./.{./.2X:XbXbX1X X*X*X*X=X*X%X*X_.>X XXXqX1X",
"I.E.E.L.H.E.Q.E.n.n.'.`.`.I.I.}.I.H.L.`.W.I.W.I.|.W.W.|.W.P.[.gXbXF.v.l.@.,.x.>.~.v.S.x.=.O.=.X.O.@.o.o./ E X.E X.E X.&.( ( 5 r ",
"..` H 1.H F H M 5.7.5.3.3.] _ ] ` ] { 3.] 3.J J G J J J _ [ } wXxX&.T 5 < 6 7 2 Y R 0 Y 6 5 Y < : x , 3 3 > 4 3 h x x x x , ; 5 ",
"` D L f d K K K C f f N F F L V N n N N F N D F D M d M N 7.' #XpX$.T j j x , j Y h h , h > % h x c g t * j g j * h & g > , 6 5 ",
"u.3.8.3.M N N F f m F N H H M F M B ` n N 1.V V V V N M M ' } ;XgX&.0 T 6 6 x 2 l j 3 3 * 2 _ 4 c 3 > > , x 3 6 > 3 > , $ $ + q ",
"} G D H 3.J 3.M n N M 3.k a t t k n B k B B k n D H G H B } ! ;XxXo.e 5 2 6 3 3 7 3 = 3 l 3 v l v 4 6 6 @ 6 6 T 6 6 6 6 : + 5 q ",
"i.6.0.3.I D I d L 3.1.H H 3.H k V B V M V H H M n a n M n { )  XxX&.w v v v c v b x c v b v S v l 4 l 2 > 6 v l x Y : : , T $./ ",
"6.3.9.3.8.J 3.H V n 4.6.9.8.] 5.5.V ` 9.3.{ 4.4.3.L 4.L 6.| ! .XvX$.T ! c b R W R R R v R x R T R v l v b ^ 3 & 3 3 $ T ~ T E 5 ",
"2 , > j 3 * 3 3 c # $ > > 6 x x > h Y j > & > > x g j # 3 0 9 :XmXq 1 5 5 : : : :     ; ; ; 5 1 ; - - 1 - O O 1 - O - < < < - 8 ",
"_.(.(.{.[.{._.(._.=XrX=X*X*X*X%X^._._.].^._.].^.^.^.L.]._.%X,XlXBX3XF.D.D.D.S.x.~.~.~.)./.).F.[.).).F.&X3XhXhXlXhXlXlXlXkXjXlXlX",
"7X0X8X8X7X8X0X6X0X8X0X7X>XxX=Xn.M.d.g.M.M.M.U.k.g.n.M.E.`..X|..X;X@X@X@X@X|.oXoX#X4X@X5X.X XvXsX3X1X1X<X X X-X=X{.&X X(._.(.(.(.",
"f.V.p.B.B.Q.|.Q.Q.N.W.f.H.uX=X| Q V 7.H { V B n M B c { ` ` c c | ' _ _ ` ' ` | 6.1.Q Q [ #.oXaXS.w ! ) ( 7 6 T ! ) [ E ( R ~ R ",
"Z.A.Y.Y.R.Z.V.Z.0.a.R.Z.J.qX.X6.1.L 1.L 7.3.V V V M n B ` H ` ] H k a z n B 1.7.5.C V 7.{ ` Q.eX-.v ! c x W x j , R R b x R R R ",
"C.j.j.e.e.e.C.Z.a.C.N.N.E.8XoX` V H H 1.1.H 5.L L 1.` L F M n N H I U L N I H I 1.L V B B ~ W.wX-.v [ b > g c c c h c c > c c c ",
"j.9.9.q.q.e.3.q.q.q.a.A.U.4X.X` V ` n V V Q V V M 1.1.L V H H V y M M m F D ] D M H k D _ ^ `.9X-.[ W _ R g g * % > g , h Y W R ",
"Z.C.A.A.C.a.k.k.i.k.Z.Y.H.oX=X{ Q 6.{ 5.B B B W ` { 3.1.3.3.6.{ 3.H ` L M D H V I G ` ` _ T `.tXo.E ( } [ [ } ( T R W x x R R R ",
"V.a.w.0. .N.a.H.U.R.T.J.b.;X=Xs.y.%.{ | } _ { [ R _ | | y.| ~ u.[ _ W _ G H ` 1.` 1.6.5.y.} '.tX&.-.( -.>.( @.( +.( ( x.b.&.( E ",
"T v v S ^ ) ~ v b l l v ( 9X6XR v x 6 6 j v R x R R b v , 6 T 6 6 x v c c b j x # % * g j , m.tXX.5 q 6 5 5 ; : ; q 5 0 , 0 9 , ",
"oX#XoXXXXX!.XXR.!.Q.N.!.#XfXvX0X@X|.@X@X.X@X8X8X#X5X@X.X}.].;XrX;X.XL.,.u.| } -.H.E.n.%.) ( .XMXuX4X X]. X.X;X;XoX4X4X].'.].=X].",
"XX`.W.!.XX|.XXE.Q.OXR.R.@X.X;X4XW.Q.@X#X#X#X@X8X5X#X6X#X7XqX9XvXzX(.H.E.W.R.I.|.W.$XoX`.I.}. X].P.L.E.E.W.W.H.W.E.|.n.L.L.b.b.z.",
"I.b.N.p.B.B.f.N.Z.p.a.w.p.f.E.V.V.W.T.g.V.J.U.U.J.U.J.J.I.P.K.xX9X+.$.} R _ R } _ _ _ ] { { W } R [ %.s.| { %.b x b W x c Y T T ",
"J.N.a.t.N.w.w.w.] 8.q.k.Z.e.k.k.w.N.a.] ` 0.j.e.a.Z.N.V.E.I.K.iXrX+.[ [ { 6.7.M B B B B B B k t B B Q ` W W k t % % . c W { { R ",
"H.Z.C.A.e.8. . .w.e.8.4.3.9.q.9.8.I J 9.j.t.8.e.4.e.C.C.Z.E.G.0XtX$.[ 7.3.F M V m H 5.H V n B V y n B V k M k Q ` k ` Q Q W W c ",
"U.Z.A.e.e.e.N.N.a.e.j.9.e.a.8.C.C.t.e.9.t.3.9.q.9.q.9.9.q.N.V.8X8Xu.w.I U L L H H F 3.1.B M V H 1.` n n y n m ` m Q Q Q c B W _ ",
"I.U.a.a.Z.N. .Z.Z.a.k.Z.a.a.p.C.Z.C.e.a.C.a.8.q.h.q.a. .| H.<.7X9X( ;.{ w.] 5.H 6.1.0.` H H G H B G b z ' ] b ' | ' { _ W b _ ~ ",
"}.U.V.Y.A.Z.T.N.Z.Z.A.Y.U.V.T.T.a.N.a.Z.a.a.Z.a.a.a.Z.U.d.b.>.tXaX,.$.y.i.6.| 6.] G ] ] | _ _ [ R b ^ | S _ b ~ [ { [ R [ ( ) ! ",
"T ~ b S S z S G S b B c A ! ! A l [ ^ ..b S v l b c c _ E E Y tXaX0 Y Y c g 3 * j * j > > 3 6 l 2 : c > $ h %   $ $ + $ : + - - ",
"%.} [ ' G S  .' z B ' S ! B.S.I.L.I.I.XXf.f.H.H.<.;.,.O.O.O.v.nXnX%Xc.m.m.m.H.W.L.f.%.s.:.,.z.K.,.=.S.S. X(./.{./.l.=.z.(.(.(.{."
};
