/* XPM */
static char *f8694cd1dd9d46b5cfa880d0a6180aa32ct8ndYkC74mtyed[] = {
/* columns rows colors chars-per-pixel */
"64 64 189 2 ",
"   c #231713",
".  c #281510",
"X  c #261A15",
"o  c #2C1B15",
"O  c #271E1C",
"+  c #2C1E1A",
"@  c #311F1B",
"#  c #2D221D",
"$  c #33241E",
"%  c #3A251F",
"&  c #34281E",
"*  c #272021",
"=  c #2C2521",
"-  c #342521",
";  c #3A2621",
":  c #352A24",
">  c #3C2C25",
",  c #352C28",
"<  c #3B2E2A",
"1  c #37302B",
"2  c #3D322C",
"3  c #373230",
"4  c #3E3631",
"5  c #3E3935",
"6  c #43271F",
"7  c #46281F",
"8  c #432622",
"9  c #432C24",
"0  c #4A2E25",
"q  c #422E28",
"w  c #4B2F29",
"e  c #4C3026",
"r  c #43332B",
"t  c #4B342B",
"y  c #46382E",
"u  c #4B392F",
"i  c #533227",
"p  c #53352C",
"a  c #59362B",
"s  c #54392E",
"d  c #5B3A2E",
"f  c #433631",
"g  c #4A3630",
"h  c #443A34",
"j  c #4C3B33",
"k  c #453D39",
"l  c #4A3E39",
"z  c #533D33",
"x  c #5C3D33",
"c  c #513F39",
"v  c #613B2D",
"b  c #623E33",
"n  c #4D4137",
"m  c #47403C",
"M  c #4C423C",
"N  c #544236",
"B  c #5B4436",
"V  c #54453B",
"C  c #5B463A",
"Z  c #55483E",
"A  c #5C493D",
"S  c #644235",
"D  c #694336",
"F  c #64443A",
"G  c #6A463A",
"H  c #624B3C",
"J  c #6D493C",
"K  c #714B3C",
"L  c #4D4540",
"P  c #514741",
"I  c #5C4740",
"U  c #544A42",
"Y  c #5B4D43",
"T  c #574E48",
"R  c #5D5046",
"E  c #5D5149",
"W  c #624E42",
"Q  c #6B4D42",
"!  c #734D41",
"~  c #645245",
"^  c #6A5545",
"/  c #6D5847",
"(  c #63554A",
")  c #6A5649",
"_  c #67594E",
"`  c #6C5A4C",
"'  c #745446",
"]  c #725946",
"[  c #725649",
"{  c #735C4D",
"}  c #795E4C",
"|  c #665B51",
" . c #6C5D52",
".. c #6C5F59",
"X. c #725E52",
"o. c #75614E",
"O. c #7A614E",
"+. c #6E6153",
"@. c #6E635E",
"#. c #756254",
"$. c #7B6453",
"%. c #7D6956",
"&. c #74645A",
"*. c #7A665A",
"=. c #77695C",
"-. c #7D6A5B",
";. c #7D6D62",
":. c #81654F",
">. c #816653",
",. c #836A55",
"<. c #8A6B56",
"1. c #826758",
"2. c #846C5A",
"3. c #8A6E5A",
"4. c #8C7157",
"5. c #85715D",
"6. c #8C725D",
"7. c #92745E",
"8. c #90785F",
"9. c #826F61",
"0. c #857363",
"q. c #8C7563",
"w. c #8D7965",
"e. c #867569",
"r. c #8A7769",
"t. c #87786A",
"y. c #8A796A",
"u. c #8D7B6B",
"i. c #8D7D6B",
"p. c #8F7D6F",
"a. c #927661",
"s. c #927761",
"d. c #967760",
"f. c #927861",
"g. c #957861",
"h. c #937A64",
"j. c #937B64",
"k. c #967D66",
"l. c #9A7B65",
"z. c #907768",
"x. c #937D6A",
"c. c #997E6A",
"v. c #8B7D71",
"b. c #927E71",
"n. c #8F816E",
"m. c #9A8065",
"M. c #95816C",
"N. c #9B836D",
"B. c #8E8273",
"V. c #918372",
"C. c #958372",
"Z. c #948373",
"A. c #928574",
"S. c #9B8572",
"D. c #968877",
"F. c #9D8A75",
"G. c #948679",
"H. c #988778",
"J. c #968A7B",
"K. c #9C8C7A",
"L. c #9F917F",
"P. c #A1856E",
"I. c #A3886F",
"U. c #A18672",
"Y. c #A28B74",
"T. c #A28E7A",
"R. c #AA8F78",
"E. c #A4917C",
"W. c #AA947D",
"Q. c #9C8F80",
"!. c #9D9081",
"~. c #A49482",
"^. c #AA9682",
"/. c #A79986",
"(. c #AA9A85",
"). c #A69789",
"_. c #A59989",
"`. c #AC9C8B",
"'. c #B09D86",
"]. c #B19F8B",
"[. c #AEA08D",
"{. c #B3A18C",
"}. c #AEA191",
"|. c #B3A493",
" X c #B6A896",
".X c #B8A995",
"XX c #B5A999",
"oX c #BAAD9B",
"OX c #CABDAC",
/* pixels */
",.$.#.$.$.1.$.,.$.1.{ { { >.>.,.%.z p p z w t s x l b F S x S F S t 8 b z %.,.1.<.<.:.*.1.*.{ X.{ ` { / ` / z r.e.i.i.i.v.Z.y.5.",
"%.,.>.s.k.4.4.,.,.3.3.3.3.6.g.7.4.C x x x F W x F F Q F F x S a a a K b H 3.d.d.<.7.1.1.q.3.q.6.3.5.O.>.{ $.N u.&.r.r.S.M.E.A.i.",
"O.>.,.f.s.6.,.,.,.q.6.3.3.,.3.,.,.C p p C C x x F I I x x a 0 v F J G d z 3.d.d.<.<.3.-.2.s.7.j.6.s.6.,.2.,.W x.0.3.M.D.L.!.B.A.",
">.{ 3.3.s.7.3.d.s.4.6.3.} >.} } ) z x x F x W p g x z x a 0 a b K D S S C <.d.d.3.,.,.2.q.7.d.s.6.k.j.6.5.~ N y.&.5.M.B.M.M.J.G.",
"O.{ >.:.:.O.>.>.7.6.6.6.{ } Q H O.x z p x x p x G F F F F b b G S x x F q [ s.6.3.6.3.%.2.7.k.4.5.8.j.m.f.~ W V.r.2.V.~._.|.!.v.",
"6.,.%.%.%.[ X.[ ,.$.,.$.} [ ^ %.O.j 9 d z t z z z F a F x b S x a p p F > ..W %.1.>./ ` *.%.%.q.%.+.` %.^ ( N ;.9.J.A.G.i.V.J.J.",
"C I N V z N j z j ) ( Y Y I Y Z n V Y Z ~ [ [ X.&.X.( z I c c g N B j j c V t t r j t c B r z V n n N N N r r V l ( X.X.^ ` #._ ",
"3.,.2.2.%.$.#.#. .u.r.x.M.F.W.!.M.B.L.K.~.Y.N.F.c.b.9.X.X.*.X.` &.*.5.3.1.X.X./ ` [ ~ { #.~ P.N.N.S.U.I.S.N.U.W.S.T.q.j.k.M.S.2.",
"6.8.4.5.2.,.1.$.( C.#.M.i.S.E.J.i.A.A.~.K.~.F.K.M.i.=.` ~ R ( ` ` #.{ { o.~ _ ` / o.` / A Z l.6.q.k.U.Y.N.M.T.~.^.^.M.0.y.V.x.0.",
"8.6.q.f.q.2.,.[ ~ u.%.0.V.C.K.J.B.A.J.A.K.F.L.!.}.XXv.A A A ~ ` %.#./ / $.) ` %.%.$.^ R h j U.U.^.Y.Y.N.k.N.T.T.!.H.F.S.K.T.c.r.",
"g.q.6.5.6.7.,.Z =.V.*.x.Q.!.Q._.J.J.V.x.~.J.E.|.E./.e.N ) ( A R ~ #.$.#.0.o.~ X.o.o.H V V Z 5.%.S.T.R.U.^.W.(.T.W.Y.6.6.s.q.q.u.",
"j.j.5.5.j.q.{ $.Y 9.r.r.C.y.Q._.V.V.E.F.w.^.j.M.w.S.%.Z / ` ~ R A Y ~ #.o.&.&.X.#.%.U V > j W.^.W.P.N.S.U.S.U.U.N.R.P.3.M.s.s.q.",
"j u q r j : < < # E Y &.*.&.P | ( @.&.+.&.n Z _ &.| j < u M ~ C n U n V / Y N h g 2 : & # & [ o.) %.X.X.X.X.X.) n B C j ^ A W g ",
"H C A C B B C z N N N u j t C C z j #.Y E R Z M Y Y ~ ~ Z U A Z V A A n Y e.y.r.y.B.M.W.W.W.E.T.Y.S.S.S.b.x.X.q.f.k.j.x.k.N.z.k.",
"B H B B B B N C N N N j N z Y I C g -.~ E _ Z M ` ) ( ) Y / / #.A ) R V X.u.r.C.D.A.F.Y.F.W.^.R.Y.T.Y.S.S.U.-.k.6.f.k.Y.U.N.N.N.",
"B H H C B H C C C N V B V N c y j j &._ E E Z Z +.` R #./ +.` o.) ( Z Z ( H.G.H.D.V.M.Y.F.R.E.E.T.T.R.~.J.S.2.h.N.Y.U.N.R.c.N.S.",
"N B H B H B H A C H A N A A h ; A j 9. .( _ ( Y ` #.*.5.5.i.2.;.` / Z N Y G.J.K.V.x.S.Y.U.T.Q.T.W.T.Y.T.b.T.*.z.$.T.Y.T.S.Y.S.^.",
"B B H H H H H B C Z g t V r ; r C j ..( R e. .( -.x.S.w.M.5.%.{ ~ Y h A ` J.`.B.M.H.!.S.S.U.T.Y.S.^.T.G.T.~.9.l.S.x.S.U.h.W.Y.W.",
"r 9 u u s u s B z : < y r : > > g r Z U U ..| T p.x.q.9.` { ` R Y h 2 N Z ;.A A.~.F.J.T.F.S.c.S.x.b.&.q.0.r.X.9.S.h.c.N.K.x.N.N.",
"A A C H ^ ] [ ^ z ) ) W Y A Y { W Y Z C j N j I z ) l X./ ^ ^ / ` [ ^ ^ ~ ~ H H ~ / Q } X.W Q ! { [ [ { [ ) Q [ [ [ [ ] [ X.[ / ",
"~ ~ / { } { H A I X.&.X.` ` &.5.5.$.o.o.#.` ) o.{ ` Z s.,.,.4.8.4.3.4.,.3.6.<.3.3.4.l.6.,.W l.7.7.7.6.d.<.s.a.3.l.6.3.q.6.s.s.2.",
"[ ~ o.[ [ { ^ ~ B ~ Z ( ` ` #.` #.%.) ~ ( ` ` { / Y t $.o.,.,.8.f.4.>.%.6.5.6.5.3.,.3.>.,.) <.6.d.d.d.3.<.s.a.3.q.3.<.<.d.3.q.q.",
"$.{ { { :.^ A V z ~ N R `  .%. .` %.` ` %.%.%.` ~ N > / O.O.4.,.k.7.6.4.6.4.2.4.O.,.O.O.) Q 1.s.3.z.l.s.3.a.a.<.3.s.a.h.a.s.<.q.",
"O.%.,.O.} { Z j h ~ / ~ A R ~ %.&.%.&.` ` 5.o.o.n Z r ] O.O.:.,.,.>.{ 4.7.4.6.<.{ { [ C } I a.c.s.3.q.3.2.*.3.a.l.a.7.a.<.3.*.,.",
"6.%.O.^ H ^ u j > H ` / ~ A R Z ^ #.#.$.#.( o.~ V y 1 ^ 5.O.%.<.>.{ ] O.6.,.6.%.%.} H $.>.C U.c.s.s.s.9.k.N.2.,.} ,.1.<.7.$.%.0.",
"H z 2 & # & $ 9 # q 2 j B r j n 2 N ~ V t h > # # X   : N V n r y N j y y j r s z r t 9 ; ; ; ; z z z W c g c I E W I Y I j n g ",
"C B B C B N B N N B N g n u A A z j #.Y E Y Z Z ~ ~ ~ ` R H A ~ A A R M q Q D G J G F G D Q F F x b b b d a w z.Y.S.(.(.W.S.c.M.",
"H C B C N A N B N j N u N n A C B g -.Y ( _ T P  .` ~ W ~ | _ #.R ( H Z 9 G b D G F F D D F x p p x b b b a 0 b.).^.(.^.(.E.F.S.",
"H H H B B H H B A N B C C N C r j t &.( ( E P P #.+.~ o./ &.` o./ ( U Z 8 D F S a G b G d p 8 a a ! Q x D d 7 x.~./.[..X^.`.S.K.",
"s B H B B H H B A H B N A Z u & H h *. .(  .( R +.o.=.w.5.n.%.5.` ~ N Z e F a p S D d S ! b ! G b p a S K G 7 q.F.W.(.|..X{.Y.T.",
"N B H H H H H N B V u u V 2 > y B j #.( E e. .( 5.M.F.w.M.%.%.` ~ A j A 9 K J G v D D S z w p p a b x D J J % w.i.0.D.(.oXW.N.Y.",
"> > r 0 e r u N u & : y 2 & & & > ; h h M ( T P ;.0.%.$.H / / Z U f > l @ p p z a s p 9 0 a a p p p w ; 8 0 . ( 5.n.M.w.L.M.5.i.",
"H H ^ ^ [ ' { o.u r n n r u r u n j N N z z N s z ~ N ` 5.q.5.5.%.2.0.y.0.q.q.2.$.%.$.X.*.) A.M.w.c._.J.M.%.y.v.b.;.G.G.V.b.i.u.",
":.O.:.:.,.,.3.>.u H H H N u u n N N N B B Z H B H B z ) 5.8.6.8.u.q.6.w.j.x.u.q.,.>.%.$.#.W F.W.W.F.F.W.T.M.F.Y.^.K.T./.~.V.C.i.",
"O.$.O.:.:.:.6.1.e z y V n V B N n B B B H B H B H H N ) 5.8.M.5.3.5.5.7.w.j.u.q.3.%.%.,.$.) ^.^.(./.^.E.N.F.E.M.T.K.T.F.~.F.M.y.",
"O.O.%.>.,.:.3.<.r C < N C A B H H A C W B H B H C z j %.6.6.6.6.s.5.2.r.i.e.i.5.3.$.%.#.} ~ S.(.`.`.`.W.E.E./.^.`.S.M.F.E.~.K.Z.",
"O.O.O.O.,.,.>.} r H r & j Z n u N B N A H B F ^ N B C -.H.-.5.5.6.q.C.b.J.i.5.0.5.3.%.%.%.) j.E.W./.}.[.S.E.^.F.L.S.F.F.F.F.E.A.",
">.%.$.>.>.>.O.%.t j g q & h r r r N Z H N B B B s u r _ ~.G.0.;.` %.u.u.M.w.q.3.%.$.*.=.%.W M.K.W./._.[.E.~.L.W.E.Y.F.L.!.E.A.M.",
"q 2 q r 2 y h r : $ - # # - < < < : N n c U V k r y r f ( ) ( Y V l c l 2 r y n h r < < , < 4 3 4 4 , 1 2 4 & T ~ _ ^ H ~ R R R ",
"Y ~ W ~ ~ R ~ ( ( ~ ~ U Z U ~ Y ` ~ q.j.x.T.}._.E.N.N.K.S.N.Y.I.Y.T.!.~.( P L E P L k 5 4 k 5 5 5 m m m M U U 0.M.N.S.N.W.L.L.J.",
"n ~ ~ ` ` / H R / R ` Z Z ~ R R #.( u.c.c.x.`._.J.N.K.`.K.F.Y.I.I.T.~.K.V h 5 l M M l k k k 5 k m m m m U U n ;.i.M.K.D.T.E.!.G.",
"A Y ` $.#.;.` %.`  .` _ Z E R _ _ _ x.s.c.Q.Q._.}.~.`.`./.T.F.N.P.Y.~.S.h 3 L T T M L 5 5 k L 5 m m L M m Z k v.}./.K.!.F.L.G.B.",
"n n ` #.%.0.M.M.5.;.%._ E +.+._ | _ c.6.z.M.^.).~.T.}._.}.E.U.Y.U.P.c.Y.n 3 l T P m L 5 k m P m m L T U Z m : t./.(. X~.J.E.V.D.",
"V g ~ Y -.%.%.i.m.M.M.&.E n.+.Z  .Y x.N.j.S.E.).).S.C._.K.Y.N.F.S.S.x.S.k 5 h P U 5 = , k T P k m L _ M k P < *.S.w.k.6.(.M.F.E.",
"- ; r h N B g A ( _  .V k h k < > < Y W ) ( &.@.( | ;.&.-.&.+.o.` ` ;.;.+ * O # O = < f h l r 2 5 2 1 , , , = U &.&.X.Y V +.#.+.",
"1.6.3.,.5.>.6.j./ f.h.h.6.T.k.M.N.N.k.8.c.E.~./.M.J.2.X.q.w.w.8.5.2.w.q.q.x.q.0.-.,.$.%.>.W x.N.m.S.E.Y.S.U.c.Y.^.(.T.'.W.E.U.W.",
",.,.q.g.7.,.%.6.A M.F.Y.U.E.Y.F.S.N.S.Y.W.`.T.^./.W.x.` 5.8.q.5.r.w.q.w.r.x.u.5.2.,.%.#.#.) K.T.R.`.~.E.T.T.W.'.Y.W.'.'.^.W.^.W.",
",.4.f.f.4.>.%.,.u N.F.Y.S.N.U.N.m.c.E.N.(.(..X]./.~.q.o.2.w.n.8.4.5.3.q.q.x.r.q.2.,.%.%.%.{ ~.]./.F.`.F.R.(.~.F.W.W.{.{.^.^.`.{.",
"6.3.j.4.,.,.$.,.y j.M.S.c.l.f.$.0.Y.F.F.{..X[.(.~.K.%.-.q.5.6.5.7.q.2.y.B.q.b.5.3.>.*.O.#.` ^.XXoX[. X~.W.(.}.{.^.W.[.|.W.{./..X",
"%.,.] 3.O.} O.:.r S.S.x.x.N.E.F.x.T.E.U.[. X[./.i.Z.-.0.J.0.5.%.6.f.C.H.G.V.q.0.2.3.$.&.*.` F.oX X`.|.~.~.T.F.E.E.W.(.XX`.~.[.{.",
"[ ` $.1.$.1.<.6.- T.`.q.%.6.5.0.b.K.K.S.T..XF.M.S.x.%.( L.K.e.-.`  .0.2.u.j.5.,.2.[ -.2.,.I q.U.`.C.i.[.].]. X{.^.{.oXoXOX[.W.E.",
"% ; 6 6 0 t e e 0 8 9 q 9 e e 9 9 . & r y r y u h 2 y ; y u 2 1 1 g y h - & q > ; 2 : > ; : > > r > > : r j r V H ^ / R ~ H H A ",
"i a S S B d F F J D D F G G J F K 9 Z ~ ~ Z / R Y ~ ~ ~ ~ / Z Z ~ E R &.l Q W H j u j u V V N B N B A B B B z o.4.w.5.8.w.5.8.M.",
"v D S G S 0 e e F S F S S G S S G ; V A ~ ^  .` / ( ~ _ R _ M Y E ( ( %.V z j Z N B N V z N C N C z B A H H j o.5.w.M.5.5.5.,.8.",
"d D v p D J S a i S D D D d p S G 9 n Y / ` %.#.5.` %./ %.$.E M ( R ` &.j z q Z V A B A H C H H H F H J H B y %.,.w.8.8.8.6.5.w.",
"G K K D a i S K S S S a S S S S S t A n A ` %.&.M.M.M.w.0. ._ +.=. .( =.j H r & Z C N N A C B H B H N H N N B w.i.5.,.2.8.q.i.B.",
"G F b d b G B s e 0 S K K D G G Q 6 N f V A ` 2.$.2.j.F.M.S.( +.0.( R _ M B e r ; u 2 u u C N B C C H F j t g ;./.n.2.*.&.3.J.C.",
"o $ + % % > 9 & 9 t % ; % % 9 ; ;   - # , 2 j Z A Z I Z E V f h h 2 2 - # + +   # : 2 #   # r 9 9 t r q > q ; g  .{ X.Y V j z A ",
"h h , h h l 2 N / N.c.N.N.U.I.P.l.S.T.f.N.k.c.c.N.N.*.T R Y R E T m m n n m m m V U ) ^ A H j.l.l.s.a.l.s.a.3.a.f.7.7.q.q.s.q.1.",
"V h V T T Z n 4 ` g.q.g.S.P.P.c.N.F.K./.^.i.e.y.x.q.#.h P U ( E R T Z M k 5 5 M U Y U E R Z f.7.s.s.a.a.<.3.a.a.f.3.<.3.6.3.s.q.",
"l k k l M n 1 4 ) S.S.Y.U.N.Y.c.m.^.~.~./.Z.M.M._.S.0.: l L P E T P P P l k 5 k M V l k 4 l 1.6.s.s.a.3.<.z.a.3.s.7.3.k.d.6.<.q.",
"M l T n 1 f h M W q.q.T.Y.S.Y.S.E.E.N./.M.q.f.M.6.q.-., l T m L n V T P L P U P l 4 , < l r } c.<.q.q.d.a.q.<.3.q.z.z.s.s.3.q.9.",
"U P r = m k 4 2 W U.S.c.T.N.N.U.Y.E.I.N.W.7.3.r.s.j.0.# L L U P P U T | | | T m h h k T k < c.U.7.z.,.$.9.3.$.,.d.3.6.<.3.<.} 2.",
"n f 4 m , 2 f f c c.S.c.U.Y.C.P.T.M.m.5.q.2.-.x.3.q.( l f h L k P L E | +.Y P 4 M h T l h > { } q.9.c.z.k.x.c.q.X.,.1.9.,.X.X. ."
};
