/* XPM */
static char *d33a4fb4665c4ddefa6406c067251883pcudHvdgSBw94nx6[] = {
/* columns rows colors chars-per-pixel */
"64 64 242 2 ",
"   c #4C2D1E",
".  c #4E3324",
"X  c #503326",
"o  c #563625",
"O  c #553A2B",
"+  c #5B3C2C",
"@  c #653E2B",
"#  c #693F2D",
"$  c #5B402F",
"%  c #5B4538",
"&  c #64412D",
"*  c #6B442E",
"=  c #644533",
"-  c #6C4432",
";  c #644837",
":  c #6D4935",
">  c #634B3C",
",  c #6C4C3B",
"<  c #724633",
"1  c #744A35",
"2  c #7A4B35",
"3  c #744C3A",
"4  c #7B4E3B",
"5  c #6D513E",
"6  c #7F5036",
"7  c #74513D",
"8  c #7D523C",
"9  c #6D5343",
"0  c #6A5247",
"q  c #695549",
"w  c #735443",
"e  c #7C5542",
"r  c #755946",
"t  c #7B5A45",
"y  c #72574A",
"u  c #755B4B",
"i  c #7B5D4A",
"p  c #755E53",
"a  c #7E604D",
"s  c #7C6354",
"d  c #786457",
"f  c #7D695D",
"g  c #7D6C64",
"h  c #7E7069",
"j  c #83533D",
"k  c #8D553B",
"l  c #8B563D",
"z  c #85593E",
"x  c #8B593E",
"c  c #835542",
"v  c #845B44",
"b  c #8B5C43",
"n  c #895A47",
"m  c #835D4A",
"M  c #925D43",
"N  c #965D43",
"B  c #84624D",
"V  c #8B6348",
"C  c #8B634C",
"Z  c #946145",
"A  c #9A6346",
"S  c #996946",
"D  c #93654B",
"F  c #9A664A",
"G  c #94694D",
"H  c #9C6A4C",
"J  c #846553",
"K  c #8A6651",
"L  c #856954",
"P  c #8C6B54",
"I  c #81665A",
"U  c #846C5C",
"Y  c #8B6D5A",
"T  c #916651",
"R  c #946C53",
"E  c #9A6E54",
"W  c #926D59",
"Q  c #9A6F5C",
"!  c #8B715A",
"~  c #8D725C",
"^  c #947056",
"/  c #9B7256",
"(  c #93735C",
")  c #9B755C",
"_  c #97785F",
"`  c #9C785E",
"'  c #A56A4B",
"]  c #A36C4D",
"[  c #A3714E",
"{  c #A9744F",
"}  c #A36E51",
"|  c #AA6F50",
" . c #A47252",
".. c #A97654",
"X. c #AC7956",
"o. c #A2755A",
"O. c #A37A5D",
"+. c #AB7A59",
"@. c #B27C59",
"#. c #826E62",
"$. c #8A6F65",
"%. c #847265",
"&. c #8C7463",
"*. c #84756B",
"=. c #8A766A",
"-. c #8E796A",
";. c #937562",
":. c #9B7661",
">. c #957A64",
",. c #9C7C63",
"<. c #937B6B",
"1. c #9C7E69",
"2. c #877972",
"3. c #8D7D74",
"4. c #927E73",
"5. c #967E79",
"6. c #A27D63",
"7. c #A77D66",
"8. c #A87F70",
"9. c #B2815C",
"0. c #9C8168",
"q. c #9D826C",
"w. c #8D8278",
"e. c #958275",
"r. c #9C8573",
"t. c #94857C",
"y. c #98887C",
"u. c #A38165",
"i. c #AB8265",
"p. c #A4846B",
"a. c #AA856C",
"s. c #A6896E",
"d. c #AB896D",
"f. c #B48869",
"g. c #A38572",
"h. c #A68674",
"j. c #A58B73",
"k. c #AC8C73",
"l. c #A48C7C",
"z. c #AB8B7A",
"x. c #B28E73",
"c. c #B98A71",
"v. c #AD9176",
"b. c #A6907D",
"n. c #AD917B",
"m. c #B39176",
"M. c #B3947B",
"N. c #B8977B",
"B. c #BB9A7E",
"V. c #958982",
"C. c #9B8C82",
"Z. c #9D938B",
"A. c #9E9692",
"S. c #A18E83",
"D. c #A39185",
"F. c #AC9483",
"G. c #A4948B",
"H. c #AB998D",
"J. c #BB9D82",
"K. c #B59A88",
"L. c #A49A96",
"P. c #AC9D94",
"I. c #AA9F9A",
"U. c #B29D93",
"Y. c #B89F94",
"T. c #BCA185",
"R. c #BDA18C",
"E. c #ADA197",
"W. c #ACA39C",
"Q. c #B3A294",
"!. c #BCA494",
"~. c #B3A49C",
"^. c #B8A79A",
"/. c #BCAB9D",
"(. c #ADA5A1",
"). c #AEA9A2",
"_. c #B4AAA4",
"`. c #B5ABA7",
"'. c #BBADA4",
"]. c #BAB1A9",
"[. c #BCB2AC",
"{. c #BEB7B3",
"}. c #C19E84",
"|. c #C4A589",
" X c #C3A38C",
".X c #C6A996",
"XX c #C3AC9C",
"oX c #C9B19D",
"OX c #D1B49A",
"+X c #C3AEA1",
"@X c #C5B3A5",
"#X c #CCB4A4",
"$X c #C4B4AA",
"%X c #C9B6A9",
"&X c #C4B8AC",
"*X c #CBBAAC",
"=X c #D0BAA7",
"-X c #D3BDAD",
";X c #C3BAB4",
":X c #C7BBB4",
">X c #C4BDBA",
",X c #D2BEB2",
"<X c #DAC4AF",
"1X c #CBC1B6",
"2X c #C6C1BE",
"3X c #CBC2BC",
"4X c #D5C2B4",
"5X c #D9C6B6",
"6X c #D3C5BC",
"7X c #D4C9BE",
"8X c #CCC6C2",
"9X c #CEC9C5",
"0X c #CCC9C8",
"qX c #D6C9C5",
"wX c #D4CBC4",
"eX c #DACEC5",
"rX c #D3CDCA",
"tX c #DBD1C6",
"yX c #D6D1CD",
"uX c #DBD2CC",
"iX c #D3CFD0",
"pX c #D6D3D1",
"aX c #DBD5D2",
"sX c #DDD9D5",
"dX c #DDDBD9",
"fX c #E3D4CA",
"gX c #E4D9D3",
"hX c #E3DBD5",
"jX c #E2DDDB",
"kX c #E4E1DD",
"lX c #EAE3DD",
"zX c #E1DCE2",
"xX c #E6E4E2",
"cX c #EAE5E3",
"vX c #ECE9E5",
"bX c #E7E6E8",
"nX c #ECECEB",
"mX c #F2EEEA",
"MX c #EEF0EF",
"NX c #F2F1EF",
"BX c #F1EEF1",
"VX c #F2F2F2",
/* pixels */
"4X%X*X4X=X-X4X7X4X#X=X6XnXtX!.@X+X+X$X*X*X*X*X@X@X%X%X%X%X-XuXmX6X*X=X@X*X,X5X4X,X,X,X,X-X-X-X,X4XhXcX!.+X+X+X*X%X%X%X%X@X@X*X%X",
"B.J.T.J.m.N.B.N.N.i.d.p.:XQ.6.:.6.d.k.z.6.M.k.p.k.u.d.,.,.7.q.eXG x n c v n b b M N N N Z b D D H p.8X:.:.u.p.x.k.j.k.m.d.d.p.s.",
"p.u.p.p.s.d.M.T.N.v.,.k.U.P.p.h.p.j.:.q.k.F.m.d.p.0.u.( u.p.Y rXm b c 4 c 4 8 8 4 j j c c b b D G 6.3X0.a.p.k.0.p.p.M.n.d.p.u.0.",
"` O.O.v.d.m.M.m.u.( k.>.~.U.W :.k.p.,.g.F.M.s.,.p.,.,.` P h.U qXe 2 8 4 4 4 4 4 < 2 j 4 8 c c Z n I 3XU W a.j.,.,.F.z.k.u.p.` u.",
"G o.D B ) B 9 5 L P ( R P.P.( 1.~ P w ) K ) s.b.` ` ~ P >.q.&.rXw : - 4 2 c j 3 3 4 j 4 8 8 8 : = C.3XW q.~ ;.3 ^ T >.j.v.0.^ ^ ",
"a ! d q 9 ; = C ~ ~ J > (.'.y i 0 u Y J a ! ~ Y 9 > a a ~ >.#.cX#.9 O O + : 3 < e 3 3 < : 3 U f g >XsXa u 9 q U Y i L &.&.q % a ",
"yXhXnXMXhXqXqXrXsXuXaXjXxXvXhXyXuXaXaXjXjXdXjXdXdXsXyXeXeXuXjXvXjXfXeXwXqXwX8XqXsXhXaXqX8XeXkXbXvXmXVXdXsXdXdXdXdXdXjXdXjXkXaXyX",
"( >.l.jXa.7.+.o.+.i.9.c.i.f.a.f.c.m.m.N.J.wXlX4X4XoXd.7.7.+.o./ Q R E G E E R E [.%Xx.k.s.j.n.j.z.z.K.M.K.h.h.U.'.`.3XnX'.n.a.) ",
"T W K qX .T R K T R R E E R E R ^ R ^ ` O.q.@XS o.} H N M b n b n c j c c j n e D.K.x.h.d.d.p.>.p.,.6.p.s.k.p.0.) Y s aX:.T G Z ",
"D B % 8XV m / G G G G C H G G C K / / / ` p.!.] N H T M b k j j j j c j 8 z 8 : P.l.f.d.a.v.p.( P ` ) ` 0.j.` k.s.U d sX_ _ E C ",
"t X > wXC t K R C C C C D G D G W R ` / R g.XXD } F H D N n j c c 4 j c v b 8 & '.G.O B >.s.j.v.s.) ,.,.P a.v.s.Y r i aX^ ^ D x ",
"* P =.jXL t B G T G G G D R T T / T C R R p.'.@ # 4 z z x D V G n c 4 < 3 X O . >X>X+ r 5 r s ! a B i , i ^ ` 5 i U p aX! V z 8 ",
";XtXnXVXhX'.~.].>X&X&X;X;X:X$X$X].'.@X_.$X9XvXE.Z.G.U.U.E.Q.Q.P.~._.[.'.].2X8XpXVXnX8X>X(.I.W.W.W.E.P.(.~.G.y.V.Z.Z.W.nX[.'.~.W.",
"XX#X#X4X1XOX<X5X*XeXcXVXVXhX%X!.+X!.#XoXoX=XXXoXXX=X=XXXR.XX3XVXhXoX X!.!.~.Q.XX*X+X^.+X.X!.!.*XlXNXaXG.G.H.Q.'.].'.~.E.^.Q.Q.Q.",
"a.a.a.x.m.m.B.}.|.N.i.k.:XF.6.) 6.N.J.m.M.J.m.x.M.J.J.x.a.d.0.kXa.G / P i i w i y u w i u a B L ~ b._.! ! ~ ! _ ~ ! ~ 0.! 0._ ~ ",
"7.7.a.d.f.i.i.N.B.J.m.d.~.g.,.` 6.,.,.u.u.k.u.d.d.J.J.x.m.,.0.wXP b V B i y w y w w 9 9 w a a a 9 e.'.L _ ~ L ! L ! ! _ ! ~ _ ! ",
"/ ) :.p.h./ ( g.` ,.k.( ].l.0.T ` u.>.7./ d.m.x.x.m.s.P ( >.d sXL 8 7 r i w t r t B r B t i r 0 % t.'.^ :.Y ^ _ K C G T W ) ) ~ ",
"v 7 J P 5 7 P ` ,.k.m.~ ].q.C W L s.) H / 4 B m w % 3 ` P p.r jX2.+ & = 5 t L L a J B t C e w w % y.{.L ^ W K K n m K T R ` o.R ",
"q p #.q g &.&.d I U s q {.&Xd #.f % d #.y.t.%.s s i -.-.<.f g bX;X9 > % q q 0 s a s s U s d p p d ).uX-.<.&.s u I s y y U &.<.4.",
"aXaXcXnXcXnXMXkXgXuXaXaXjXjXaXeXeX7X8X6XyXvXcX9X9X3XyXjXkXhXaXdXsX3X9X9X3X3X9X9XjXxXcXlXkXlXcXkXsXlXlXwX6X6XwX4X6X6XqXzXwX3XwXeX",
"c b m cX#XXX.X+.o.} 7.N H H C M A F G V V >.;XU U ,.~ >.&.>.>.>.0.q.>.>.>.0._ ! ].-Xf.@.....F +.X.9.9.X.{ [ A A M l z tXh.6.p.x.",
"e 4 3 wX] E } H N N b n c c c c j j 4 b 8 s _.Y ~ ~ ~ _ Y Y Y ;.~ ~ >.! ! ~ L ! {.J.' ' F ' } A H [  .[ [ S A A M Z j 3XW / ` 6.",
"1 j w 8X..F F H T M k j c c c j c j j e : U $XL >.^ Y &.L K K ;.R _ ^ ^ P P P J 8Xc.N j j ] ] } X.X.9.[ [ S x b b A < uX,.G G ` ",
"* < t eXR D H H N M M b c c 4 3 c c b v : %.[.( ) W W ^ K n T T ^ ,.) P ( ( ~ q pXk.' ' D l F b S D 8 1 < 1 x Z A Z & uXW ) ) C ",
"o = 0 uXw o : j z v V V n n n 4 3 : + X O A.qXJ W ;.i e t m e t P R R T ;.,.U O 8XU.b b M G < c D m n T D H M 4 8 8 d sX-.B B r ",
";X3XaXBXwXE.~.^.^._.'.].].].;X>X;X>X0XpXpXnXnX_.`.`.(.I.`._.L.I.).[.>X>X9XrX0XpXnXxX;X[.(.~.].(.W.L.W._.'.].].{.>XaXcXVXkXpXaXrX",
"K. XJ..X.X|.OXOX.X-XeXkXBXY.g.7.8.8.s.F.8.z.F.F.h.8.;.Q W ) F.nX].g e.r.;.;.&.>.Y &.;.<.g.;.1.Y ~ wXuXl.,.1.1.:.p.p.;.) ( ( P ^ ",
"a.p.i.m.x.N.B.}.T.B.i.a.'.l.T R W ) o.:.:.Q o.Q Q R T n b W J yXU L W m K K K K J m m B K m i c e e.;X( W R E R Q ) R R R E R R ",
"o.6.h.s.a.6.u.x.B.J.N.u._.F.) :.6.:.6.o.Q E T M T M n n n P I rX&.m n n C K W m B m m v v t e r i C.;XD ( ) R E Q 6.Q / E R ( R ",
"/ / ) a.p.R Y 1._ ,.k._ [.r.( 8.,.a.Q T 6.R R K B m c K n 9 X pXp U J K v n T K B B m w r , 9 i m V.;X1.,.) p.G n e c i 3 e B ,.",
": ; i w : e :.p.,.m.d.L ].4.T w v ) K e Q D R D c j n t e O 0 zXp 9 e B B m 3 i e , $ O , L B e m W.>Xi <.J ,.7.v n o.Q 7.6.a.6.",
"h *.e.g 4.4.4.%.&.%.f f 2X9X5.%.*.4.%.#.#.p p #.g p d q q q 3.BX>XG.G.t.-.4.r.r.*.h *.#.-.%.#.w.C.dXiXg h p #.#.f =.#.f I g %.V.",
"7X7XkXMX3X].].].].{.1X1X1X1X7X7X[.1XyX{.>XjXcX*X#XOXoXoXoXoX5XfXtXfXhXhXfXfXgXmXnXMXkX,X!.@X+XXX,X#XoX.X X.XOX#X,XfXnXVXcX8X;X:X",
"O.u.d.kXf a s s ! 0.r.n.0.-.0.j.0.l.0.U r.G.~.N j N A ' [ X.X.9.+... .H  .| @.c.hX+X` M j k k k N l j n A S A N A ' c.cX$.u i e ",
") ( ` sXf y d d d ` >.r.j.0.r.0.y.q.r.r.=.G.I.H Z Z Z Z H { ] [ } S ' ] ' A x | 4XU H x N l k k k N N j k ' ' x k 2 N gXI t e e ",
"^ 0.0.sX~ f ! ! a ! ! r.j.j.r.b.b.&.r.-.%.G._.b A k x Z / [ ] 9.X.[ H ] A 2 M ' ,X=.j x 2 N N j < # 2 # @ @ 2 < k k A fXs e 3 e ",
"P P B kX%.y u a y ! 0.r.0.-.! ! &.q.&.U q Z.`.2 N Z A x 1 * * 8 V S b Z b | | F qXY * 8 l l l x N N A ' @.{ Z D N ' E gXs w < < ",
"a 7 d vXd % % % > q u ! f %.f <.r.-.q q q _.iXf t 1 8 b G R V v 8 v * e C j j B aXU 7 3 2 8 6 8 j k = c b 2 b j 4 1 =.xXp e w e ",
"uXsXxXnXsXpXaXrXyXyXpXdXsXsXaXdXaXyXdXkXdXvXvXxXsXyXyX9X9X9X9X8X9XrX9XwX8XrXaXjXNXkXaXpXrX9XwX9X6X>X8XuX9X8X2X>X>XrXcXBXaXrXqXrX",
"|.J.B.T. X|.T.T.k.M.s.Q.kX1XQ.b.0.>.q.e.&.q.1.>.>.,.q.q.j.j.D.vXwX4Xz.1.k.0.r.1.j.j.r.&.q.q.a.d.c.zXBX>X:X:X^.l.Y.Y.Y.K.F.F.F.F.",
"N.m.a.x.M.p.k.v.p.u._ ^ @X-.C P J L K Y P Y K P ^ ( T / :.>.~ aXL a B a t w u q r r y 9 u a R G H !.3XI W ,.:.j.k.p.d.p.,.0.0.s.",
"M.k.p.p.s.6.6.6.u._ ` p.'.w.r C B B L P P P K K P W W T ^ >.>.yXa r r a r r r 9 r t u r w a B t b D.9Xu ;.j.p.p.k.:.` ^ ` ( >.s.",
"s.p.f.k.O.O.` :.s.^ ^ ! @Xy.r C K B P L P P P Y ~ ( W :.P >.&.dXd $ w t m t B t B a a w a u 3 7 w '.;Xy u ,.m.a.:.( 7.^ ) k.k.j.",
"O ; 5 & & R E ( L L ( 5 {.w.; J B L W Y R ~ Y _ K ^ ;.Y B ~ ~ dXy ; 5 5 r K t J a B J 5 , & $ &   8X;XU J u K ,.~ w e P B ~ &.L ",
"y.C.G._.3X(.V.2.*.y.y.E.vX{.h t.t.t.t.e.C.y.t.t.V.V.~.Z.V.-.E.vX_.V.y.y.y.t.y.e.e.e.3.t.3.2.g #.Z.NXaX3.4.*.%.*.y.D.y.y.C.t.w.V.",
"oXoX4XVXrX;X].$X1X[.1XoX@X@X@XXX/./.P.E.'.yXkXH.F.F.K.K.!..X#X@XXX!.Y.Y.Y.K./.fXmX1X X X X X X XoX=X5X-X4X5X4X5X<XtXvXNXmXlX*X'.",
"b v B uX-.-.l.p.n.n.M.x.M.T.v.k.m.T.T.j.j.E.eX4 2 2 1 4 z t B V V c 8 8 z 3 j Z oXY M k N N F  .X.X.+. .} F F | | @.f.hX0.^ P B ",
"j z z yX-.&.p.n.Q.B.M.u.d.d.N.v.d.v.v.j.:.H.6X* 2 < < < 8 v 8 z v z 1 4 6 4 < j /.J ' n N S A ] [ [ [ [ } ' ' N N M X.sXy a B i ",
"8 8 w kXe.L ( 0.F.l.z.u.0.0.u.s.v.d.j.0.0.G.yX. + * < < e w w m v b v < < # < 4 XXs A F x l M S H [ +.+.S S S 4 x A  .dXs ; y i ",
": < , xXe.i L q.0.>.s.>._ 0.d.p.0.0.! p.0.Z.eX1 < @ < = + +   O +   . o # 3 8 b qXf l x Z F b * : * z Z S M b ] ' |  .kXu > 9 e ",
"% y 3.VXC.-.f f =.%.&.g g %.%.&.<.! f f h 3XaXP r w , B K W Y u L m r m B e i &.kX].4.Y w B K :.( L r t w , T m m B S.vX%.q u 9 ",
"hXsXxXjXaXwX8XuXxXkXhXkXxXxXhXtXuXtXhXsXkXlXlXuXuXuXrXuXaXsXjXdXhXjXdXsXyXrXeXuXcXcXlXgXsXyX7XwX3XyXaX7X7X7XwX6XeXtXlXmXkXdXjXjX",
"J L m B K K m n i B w #.jX*Xk.s.d.T.|.B.N.m.J.|.}.}.B.d.u.s.J.nXtX$X XK.|.OX}. X.Xm.M.x.d.M.x.u.u./.^.D N A F ' [ X.9.f.i.i.@.o.",
"B m m B C K K C n K L L 3Xl.u.d.a.T.T.M.x.d.k.d.a.k.k.6.` W ^ rXq.a.m.|. Xm.x.f.m.u.k.a.,.a.) 7.O.S.P.H n M Z Z S [ [ [  .S F } ",
"c m m m K ( C K m m B J 8XC.j.0.p.m.B.m.k.u.n.6.O.6.6.:.( ,.j.tX~ x.k.M.M.6.6.a.,.p.O.O.O.u.) D ^ U.E.M N l x Z  . . .9.{ ..} } ",
"9 r V B t K m n K K i % rXr._ ~ B i ~ ,.p.x.u.o./ ` ,.p.P T Y jXY M.s.` ( J m C 1.Y V ` ) R G ) R U.Q.j Z Z Z 8 : 8 2 G H D b F ",
"> . $ , t e i C n m i q aXg w ` :.:.w O O = . , W W m 9 I c y bX9 ! ,.6.P s.W w , i = . = 9 e J B W.;X5 v 1 V S H C V m V S 8 8 ",
"I.L.W.W.E.(.~.I.(.{.>XrXBXiX]._._._.U.P.I.;X0XuX[.I.Z.L.W.`.iXBXW.L.Z.A.L.).I._.W._.`.(.`.;X9X0XrXnXnXsX;X_.W.E.~.E.C.D.V.G.A.I.",
"4X6XhXVXhX!.z.z.l.z.z.F.R. XK.F.z.h.1.8.8.;XBX8XI.G.G.S.C.5.V.~.P.G.D.D.S.F.H.;XvXkXE.^.'./.'.'.%X#XXXXX!.J.v.!.U.H.~.hX8.a.c.x.",
"C b K eXH k 4 8 j j j n B n v c 4 2 3 4 4 h.8Xs a m m i i t m m a i i i t r e y ;XD.>.0.u.k.M.M.v.d.i.i.u.) u.0.^ B J 3Xo...] F ",
"Z x z 3Xj < 3 4 2 2 8 v v e w z < < < - - 2.`.Y L c n n n c c e c c 4 c e e e r ;Xe._ ,.u.0.0.M.v.p.d.O.u.G R 0.~ a L 3Xl Z x S ",
"z z V wXb < - < : 7 b m v e 7 t 3 < < # o 5.[.K m c 8 e c 4 e c 3 c # e 3 e 4 w &Xe.,.L 0.v.B.M.v.s.v.i.u.^ ( ! P &.0.9XH D z Z ",
"z v z uX` j 7 < -     . X   O # : - # = < l.rXK W c m e c e c c e 3 c e 3 3 3 w ].Z.0.0.u.R ( ` ) ` u.u.0.,.0.( ~ q.r.kXK M x : ",
"T ^ D.vXH.B r B i B i ~ s U ;.Y J i w m B I.zX#.$.y i J J I I $.I I I I I J J p 1X{.b.e.y.D.G.l.-.e.0.e.y.e.b.D.e.y.C.vX3.p s J "
};
